<?xml version="1.0" encoding="UTF-8"?>
<svg version="1.1" xmlns="http://www.w3.org/2000/svg" width="2162" height="875">
<path d="M0 0 C1.28390625 -0.01546875 1.28390625 -0.01546875 2.59375 -0.03125 C10.24511388 1.36738641 16.89777174 6.60580832 23.2109375 10.90234375 C25.0825969 12.16320783 26.95467828 13.42344573 28.82714844 14.68310547 C29.7731189 15.32092957 30.71908936 15.95875366 31.69372559 16.61590576 C35.99707371 19.5051148 40.32936689 22.34953323 44.6640625 25.19140625 C46.38003821 26.31832806 48.09593889 27.44536411 49.81176758 28.57250977 C51.11109726 29.42584396 51.11109726 29.42584396 52.43667603 30.29641724 C70.99859198 42.49058733 89.45728676 54.8293184 107.82861328 67.30883789 C109.12935539 68.19049622 109.12935539 68.19049622 110.45637512 69.08996582 C112.06390783 70.17970944 113.67005527 71.27150084 115.27445984 72.36584473 C117.33744389 73.76347245 119.41529866 75.13505728 121.5 76.5 C122.12981781 76.93303436 122.75963562 77.36606873 123.40853882 77.81222534 C125.40103997 79.15760707 125.40103997 79.15760707 128.5 80.5 C131.92096455 79.46562733 134.71036081 77.85110148 137.64990234 75.84887695 C138.43711166 75.31623734 139.22432098 74.78359772 140.03538513 74.2348175 C140.87706741 73.65846054 141.71874969 73.08210358 142.5859375 72.48828125 C143.91257164 71.58851814 143.91257164 71.58851814 145.26600647 70.670578 C147.15685859 69.38766559 149.04632896 68.1027147 150.93453979 66.81591797 C155.86474795 63.45682894 160.80588408 60.11388574 165.74609375 56.76953125 C166.70747757 56.11820221 167.66886139 55.46687317 168.65937805 54.79580688 C175.91524178 49.8839376 183.21751338 45.05547378 190.57295227 40.29394531 C197.21609537 35.99145639 203.83804805 31.65813223 210.4453125 27.30078125 C211.42676743 26.65396896 212.40822235 26.00715668 213.41941833 25.34074402 C216.46741342 23.3317858 219.51498565 21.32218738 222.5625 19.3125 C224.5415831 18.00780918 226.52066834 16.70312161 228.49975586 15.3984375 C230.36575598 14.16801929 232.23172413 12.93755259 234.09765625 11.70703125 C235.38526352 10.85797966 235.38526352 10.85797966 236.69888306 9.99177551 C237.50602753 9.45928696 238.313172 8.9267984 239.14477539 8.37817383 C240.2736467 7.63478256 240.2736467 7.63478256 241.42532349 6.87637329 C242.72590088 6.01354963 244.02157016 5.14323064 245.30978394 4.26205444 C249.50039929 1.39650116 252.62904319 0.32305808 257.6875 0.1875 C258.58855469 0.15011719 259.48960938 0.11273437 260.41796875 0.07421875 C266.99671129 0.98306911 272.48703495 5.00202754 277.875 8.6875 C279.18792188 9.57682168 280.50180181 10.46472988 281.81640625 11.3515625 C282.55004395 11.84688477 283.28368164 12.34220703 284.03955078 12.85253906 C288.93617962 16.13121056 293.87748086 19.34203916 298.8125 22.5625 C299.93956627 23.29853535 301.06660046 24.03461982 302.19360352 24.77075195 C304.49085571 26.27112834 306.78831954 27.77117989 309.0859375 29.27099609 C314.49647518 32.80308816 319.90448921 36.33904069 325.3125 39.875 C326.37637939 40.57052979 327.44025879 41.26605957 328.53637695 41.98266602 C337.30871188 47.71870103 346.07605671 53.46233018 354.84243774 59.2074585 C363.391597 64.81012273 371.94403604 70.4077298 380.5 76 C390.28551896 82.39592059 400.06560402 88.80008062 409.84326172 95.20800781 C418.39214708 100.81048774 426.94431236 106.40791041 435.5 112 C444.67060347 117.99400521 453.83674236 123.99477495 463 130 C476.4936733 138.84302054 489.99552054 147.67348877 503.5 156.5 C517.61912349 165.72824181 531.73470015 174.9618231 545.84243774 184.2074585 C554.391597 189.81012273 562.94403604 195.4077298 571.5 201 C581.28551896 207.39592059 591.06560402 213.80008062 600.84326172 220.20800781 C609.39214708 225.81048774 617.94431236 231.40791041 626.5 237 C636.28551896 243.39592059 646.06560402 249.80008062 655.84326172 256.20800781 C664.39214708 261.81048774 672.94431236 267.40791041 681.5 273 C691.28551896 279.39592059 701.06560402 285.80008062 710.84326172 292.20800781 C719.39214708 297.81048774 727.94431236 303.40791041 736.5 309 C745.67060347 314.99400521 754.83674236 320.99477495 764 327 C777.4936733 335.84302054 790.99552054 344.67348877 804.5 353.5 C818.61912349 362.72824181 832.73470015 371.9618231 846.84243774 381.2074585 C855.391597 386.81012273 863.94403604 392.4077298 872.5 398 C882.28551896 404.39592059 892.06560402 410.80008062 901.84326172 417.20800781 C910.39214708 422.81048774 918.94431236 428.40791041 927.5 434 C937.28551896 440.39592059 947.06560402 446.80008062 956.84326172 453.20800781 C965.39214708 458.81048774 973.94431236 464.40791041 982.5 470 C991.67060347 475.99400521 1000.83674236 481.99477495 1010 488 C1023.4936733 496.84302054 1036.99552054 505.67348877 1050.5 514.5 C1065.2339388 524.13008435 1079.96442041 533.76536935 1094.68505859 543.41577148 C1101.53855334 547.90815579 1108.3977315 552.39161956 1115.26318359 556.86572266 C1119.51815913 559.64281252 1123.76474849 562.43262317 1128.01220703 565.22119141 C1131.18446965 567.29868202 1134.3706042 569.35425581 1137.55793762 571.40852356 C1140.32838192 573.19850681 1143.09023244 575.00146605 1145.85061646 576.80691528 C1147.1855028 577.67606545 1148.52388692 578.53987028 1149.86593628 579.3979187 C1151.74054702 580.59753855 1153.60160753 581.81593494 1155.4609375 583.0390625 C1156.53134277 583.73209473 1157.60174805 584.42512695 1158.70458984 585.13916016 C1162.82669141 588.62044594 1165.09225889 592.32361562 1166.1015625 597.7109375 C1166.15129724 604.42512747 1165.60956136 609.29457221 1161.40625 614.6875 C1157.1813652 618.70460358 1152.64317514 620.23680305 1146.9375 620.9375 C1140.21773855 620.08225763 1134.8506567 617.35263075 1129.3125 613.5 C1128.00379909 612.60372148 1126.69377791 611.70936927 1125.3828125 610.81640625 C1124.63032227 610.30223145 1123.87783203 609.78805664 1123.10253906 609.25830078 C1118.29091749 606.0075223 1113.4239667 602.84036204 1108.56332397 599.66357422 C1106.66837158 598.4249973 1104.77415127 597.1853081 1102.88012695 595.9453125 C1099.0874334 593.46249831 1095.29386292 590.98102687 1091.5 588.5 C1090.93073792 588.12772278 1090.36147583 587.75544556 1089.77496338 587.37188721 C1084.95407611 584.21932735 1080.13285638 581.06727623 1075.3112793 577.91577148 C1066.58899998 572.21409182 1057.87233288 566.50388121 1049.15673828 560.79199219 C1040.60785292 555.18951226 1032.05568764 549.59208959 1023.5 544 C1013.71448104 537.60407941 1003.93439598 531.19991938 994.15673828 524.79199219 C985.60785292 519.18951226 977.05568764 513.59208959 968.5 508 C959.32939653 502.00599479 950.16325764 496.00522505 941 490 C927.5063267 481.15697946 914.00447946 472.32651123 900.5 463.5 C886.38087651 454.27175819 872.26529985 445.0381769 858.15756226 435.7925415 C849.608403 430.18987727 841.05596396 424.5922702 832.5 419 C822.71448104 412.60407941 812.93439598 406.19991938 803.15673828 399.79199219 C794.60785292 394.18951226 786.05568764 388.59208959 777.5 383 C767.71448104 376.60407941 757.93439598 370.19991938 748.15673828 363.79199219 C739.60785292 358.18951226 731.05568764 352.59208959 722.5 347 C713.32939653 341.00599479 704.16325764 335.00522505 695 329 C681.5063267 320.15697946 668.00447946 311.32651123 654.5 302.5 C640.38087651 293.27175819 626.26529985 284.0381769 612.15756226 274.7925415 C603.608403 269.18987727 595.05596396 263.5922702 586.5 258 C576.71448104 251.60407941 566.93439598 245.19991938 557.15673828 238.79199219 C548.60785292 233.18951226 540.05568764 227.59208959 531.5 222 C521.71448104 215.60407941 511.93439598 209.19991938 502.15673828 202.79199219 C493.60785292 197.18951226 485.05568764 191.59208959 476.5 186 C467.32939653 180.00599479 458.16325764 174.00522505 449 168 C435.5063267 159.15697946 422.00447946 150.32651123 408.5 141.5 C394.38087651 132.27175819 380.26529985 123.0381769 366.15756226 113.7925415 C357.608403 108.18987727 349.05596396 102.5922702 340.5 97 C331.94293075 91.40700737 323.38939666 85.80866269 314.83914185 80.20526123 C309.39313014 76.6362778 303.94668187 73.06796059 298.5 69.5 C297.90713196 69.11162964 297.31426392 68.72325928 296.70343018 68.32312012 C277.65077594 55.83590875 277.65077594 55.83590875 258.5 43.5 C252.0273577 46.94697608 245.93263213 50.77150724 239.8828125 54.91015625 C238.53786209 55.82238197 238.53786209 55.82238197 237.16574097 56.7530365 C234.31639189 58.6859683 231.47035581 60.62369567 228.625 62.5625 C217.1900393 70.35013675 205.736891 78.06362197 194.0070343 85.40180969 C187.66926931 89.37082734 181.46584163 93.49924843 175.3125 97.75 C174.34892578 98.41128906 173.38535156 99.07257813 172.39257812 99.75390625 C170.09287146 101.33280933 167.79533919 102.91475792 165.5 104.5 C169.68551994 107.98066587 174.09972756 110.9909756 178.62890625 113.99609375 C179.43371429 114.53258545 180.23852234 115.06907715 181.06771851 115.62182617 C183.73106588 117.39610336 186.39673877 119.16685198 189.0625 120.9375 C190.94936843 122.19333815 192.8361673 123.4492808 194.72290039 124.70532227 C208.83798624 134.09542124 222.99647271 143.41898991 237.16421509 152.72937012 C253.21460025 163.28089773 269.15791959 173.98580242 285.04272461 184.78491211 C292.44313289 189.80747032 299.85095189 194.78223552 307.46484375 199.4765625 C316.17184705 204.84509202 324.61963403 210.58203111 333.0788269 216.33056641 C347.29792069 225.98933394 361.55826953 235.58117326 375.9375 245 C376.63162994 245.454888 377.32575989 245.909776 378.04092407 246.37844849 C381.64739871 248.7415009 385.25490387 251.10297511 388.86279297 253.46386719 C397.58335425 259.1718284 406.29377145 264.89520613 415 270.625 C415.91566742 271.22744537 416.83133484 271.82989075 417.77474976 272.45059204 C433.95085642 283.0994904 450.02512245 293.89541769 466.04101562 304.78369141 C473.43808803 309.80406454 480.84243024 314.77683624 488.453125 319.46875 C497.22262746 324.87538937 505.7301391 330.65569557 514.25021362 336.44482422 C527.91573762 345.72655186 541.61002055 354.96104883 555.4375 364 C556.37255875 364.61157455 556.37255875 364.61157455 557.32650757 365.23550415 C559.92297435 366.9334766 562.51982886 368.63085383 565.11720276 370.32743835 C574.36116778 376.36638632 583.58922346 382.42951216 592.8125 388.5 C594.1939772 389.40898544 594.1939772 389.40898544 595.60336304 390.33633423 C611.83615559 401.02347342 627.96784148 411.85649277 644.0402832 422.78320312 C652.93830617 428.82229837 661.90202271 434.70082273 671.04785156 440.35766602 C675.34825474 443.0181258 679.58164566 445.76180553 683.75 448.625 C684.45511719 449.08519531 685.16023438 449.54539062 685.88671875 450.01953125 C690.80414385 453.41246162 693.56620824 456.80846642 695.5 462.5 C696.42108151 467.5998116 696.29377379 472.71022197 693.875 477.375 C690.67363134 481.58732718 687.63810761 484.78729746 682.5 486.5 C679.96875 486.80859375 679.96875 486.80859375 677 486.9375 C676.0409375 486.99808594 675.081875 487.05867188 674.09375 487.12109375 C662.6253603 485.13905683 651.88000153 475.50718844 642.46975708 469.08544922 C637.66749729 465.80953152 632.85301988 462.55166217 628.0390625 459.29296875 C627.06254227 458.63154877 626.08602203 457.97012878 625.07991028 457.28866577 C615.95681094 451.11678715 606.77308239 445.040299 597.5625 439 C596.7980658 438.49830292 596.03363159 437.99660583 595.24603271 437.47970581 C591.30884725 434.89583448 587.37060936 432.3135738 583.43164062 429.73242188 C574.5528186 423.91372887 565.68018414 418.0856523 556.8125 412.25 C555.90214996 411.65109955 554.99179993 411.0521991 554.05386353 410.43515015 C537.93444013 399.82449711 521.91759636 389.0656572 505.95825195 378.21582031 C498.5575466 373.19297189 491.14939582 368.21797885 483.53515625 363.5234375 C474.82815295 358.15490798 466.38036597 352.41796889 457.9211731 346.66943359 C443.70207931 337.01066606 429.44173047 327.41882674 415.0625 318 C414.36837006 317.545112 413.67424011 317.090224 412.95907593 316.62155151 C409.35260129 314.2584991 405.74509613 311.89702489 402.13720703 309.53613281 C393.41664575 303.8281716 384.70622855 298.10479387 376 292.375 C375.08433258 291.77255463 374.16866516 291.17010925 373.22525024 290.54940796 C357.04914358 279.9005096 340.97487755 269.10458231 324.95898438 258.21630859 C317.56191197 253.19593546 310.15756976 248.22316376 302.546875 243.53125 C293.77737254 238.12461063 285.2698609 232.34430443 276.74978638 226.55517578 C263.08426238 217.27344814 249.38997945 208.03895117 235.5625 199 C234.9391275 198.59228363 234.315755 198.18456726 233.67349243 197.76449585 C231.07702565 196.0665234 228.48017114 194.36914617 225.88279724 192.67256165 C216.63883222 186.63361368 207.41077654 180.57048784 198.1875 174.5 C196.8060228 173.59101456 196.8060228 173.59101456 195.39663696 172.66366577 C179.16384441 161.97652658 163.03215852 151.14350723 146.9597168 140.21679688 C139.55851549 135.19363426 132.14989545 130.2182869 124.53515625 125.5234375 C115.82759191 120.15456205 107.37926681 114.4172357 98.91952515 108.66833496 C81.11707391 96.5753235 63.20623715 84.65970834 45.19430542 72.88174438 C36.75537602 67.36264363 28.33381023 61.81716008 19.9112854 56.27307129 C16.55688945 54.06514238 13.20207996 51.85784232 9.84725952 49.65055847 C6.73142238 47.60049991 3.61570951 45.55025253 0.5 43.5 C-0.07363281 43.86609375 -0.64726563 44.2321875 -1.23828125 44.609375 C-2.51251953 45.42148438 -2.51251953 45.42148438 -3.8125 46.25 C-5.32553711 47.21450073 -5.32553711 47.21450073 -6.86914062 48.19848633 C-9.48543914 49.86136539 -12.11082309 51.50906319 -14.74023438 53.15112305 C-25.75061542 60.03981041 -36.56437352 67.18046987 -47.30514526 74.48144531 C-61.44806054 84.09103612 -75.63421748 93.6306804 -89.9375 103 C-90.97910278 103.68260391 -90.97910278 103.68260391 -92.04174805 104.3789978 C-95.6479474 106.74186806 -99.25518049 109.10315521 -102.86279297 111.46386719 C-111.58335425 117.1718284 -120.29377145 122.89520613 -129 128.625 C-129.91566742 129.22744537 -130.83133484 129.82989075 -131.77474976 130.45059204 C-147.95085642 141.0994904 -164.02512245 151.89541769 -180.04101562 162.78369141 C-187.43808803 167.80406454 -194.84243024 172.77683624 -202.453125 177.46875 C-211.22262746 182.87538937 -219.7301391 188.65569557 -228.25021362 194.44482422 C-241.91573762 203.72655186 -255.61002055 212.96104883 -269.4375 222 C-270.0608725 222.40771637 -270.684245 222.81543274 -271.32650757 223.23550415 C-273.92297435 224.9334766 -276.51982886 226.63085383 -279.11720276 228.32743835 C-288.36116778 234.36638632 -297.58922346 240.42951216 -306.8125 246.5 C-307.7334848 247.1059903 -308.6544696 247.71198059 -309.60336304 248.33633423 C-325.83615559 259.02347342 -341.96784148 269.85649277 -358.0402832 280.78320312 C-365.44148451 285.80636574 -372.85010455 290.7817131 -380.46484375 295.4765625 C-389.17184705 300.84509202 -397.61963403 306.58203111 -406.0788269 312.33056641 C-420.29792069 321.98933394 -434.55826953 331.58117326 -448.9375 341 C-449.97869492 341.682332 -449.97869492 341.682332 -451.04092407 342.37844849 C-454.64739871 344.7415009 -458.25490387 347.10297511 -461.86279297 349.46386719 C-470.58335425 355.1718284 -479.29377145 360.89520613 -488 366.625 C-489.37350113 367.52866806 -489.37350113 367.52866806 -490.77474976 368.45059204 C-506.95085642 379.0994904 -523.02512245 389.89541769 -539.04101562 400.78369141 C-546.43808803 405.80406454 -553.84243024 410.77683624 -561.453125 415.46875 C-570.22262746 420.87538937 -578.7301391 426.65569557 -587.25021362 432.44482422 C-600.91573762 441.72655186 -614.61002055 450.96104883 -628.4375 460 C-629.0608725 460.40771637 -629.684245 460.81543274 -630.32650757 461.23550415 C-632.92297435 462.9334766 -635.51982886 464.63085383 -638.11720276 466.32743835 C-647.36116778 472.36638632 -656.58922346 478.42951216 -665.8125 484.5 C-667.1939772 485.40898544 -667.1939772 485.40898544 -668.60336304 486.33633423 C-684.83615559 497.02347342 -700.96784148 507.85649277 -717.0402832 518.78320312 C-724.44148451 523.80636574 -731.85010455 528.7817131 -739.46484375 533.4765625 C-748.17201487 538.84519549 -756.62000331 544.58221821 -765.07937622 550.33084106 C-780.70694493 560.94692268 -796.40389724 571.44707219 -812.22070312 581.77880859 C-820.44945263 587.15825455 -828.63841185 592.59255803 -836.796875 598.078125 C-838.7297204 599.37559338 -840.66258167 600.67303813 -842.59545898 601.97045898 C-845.43410621 603.87629125 -848.27103536 605.78444438 -851.10281372 607.70046997 C-853.71685716 609.46914312 -856.33639517 611.22939706 -858.95703125 612.98828125 C-859.73355042 613.5173407 -860.51006958 614.04640015 -861.31011963 614.5914917 C-867.55483593 618.7650475 -872.80550707 621.16331836 -880.5 620.5 C-887.05621026 619.09964441 -890.77841095 615.99668908 -894.5 610.5 C-897.19258644 605.72677858 -897.15542379 600.6758262 -896.0703125 595.41796875 C-893.28720027 586.43298296 -884.51912991 581.99734883 -877.03515625 577.1328125 C-876.13405624 576.54136444 -875.23295624 575.94991638 -874.30455017 575.34054565 C-871.3933853 573.43097057 -868.47793778 571.52804348 -865.5625 569.625 C-863.53673656 568.29744371 -861.51134765 566.96931576 -859.48632812 565.640625 C-856.49364731 563.6770493 -853.50079401 561.71374635 -850.50674438 559.7522583 C-843.81515367 555.36808555 -837.14499224 550.95454994 -830.5 546.5 C-823.28644573 541.67033846 -816.04762466 536.88090743 -808.79296875 532.11328125 C-805.09103262 529.67985967 -801.38919051 527.24629521 -797.6875 524.8125 C-796.75224487 524.1976474 -795.81698975 523.5827948 -794.85339355 522.9493103 C-778.46660731 512.17042538 -762.18224562 501.24535227 -745.96166992 490.21801758 C-738.56365478 485.19714909 -731.15847117 480.22371947 -723.546875 475.53125 C-714.77737254 470.12461063 -706.2698609 464.34430443 -697.74978638 458.55517578 C-684.08426238 449.27344814 -670.38997945 440.03895117 -656.5625 431 C-655.9391275 430.59228363 -655.315755 430.18456726 -654.67349243 429.76449585 C-652.07702565 428.0665234 -649.48017114 426.36914617 -646.88279724 424.67256165 C-637.63883222 418.63361368 -628.41077654 412.57048784 -619.1875 406.5 C-617.8060228 405.59101456 -617.8060228 405.59101456 -616.39663696 404.66366577 C-600.16384441 393.97652658 -584.03215852 383.14350723 -567.9597168 372.21679688 C-559.66748774 366.58917375 -551.35157316 361.04173486 -542.79803467 355.81672668 C-541.64620647 355.11053959 -540.49971716 354.39551428 -539.3606289 353.6689564 C-538.14442857 352.90486789 -536.91017777 352.16860468 -535.65798444 351.46505201 C-531.98668859 349.2188672 -530.68236929 348.25380378 -529.63422108 343.92139626 C-529.60282863 342.51285156 -529.60975923 341.10313034 -529.64717102 339.69473267 C-529.63630763 338.52579517 -529.63630763 338.52579517 -529.62522477 337.33324277 C-529.60936194 334.72449639 -529.64331931 332.11879569 -529.67700195 329.51025391 C-529.6756622 327.63911987 -529.67118967 325.76798584 -529.66381836 323.89686584 C-529.65456959 319.86854668 -529.66728716 315.84110417 -529.69695473 311.81288528 C-529.74352688 305.44225976 -529.74013895 299.07225882 -529.7297821 292.70150757 C-529.71795813 281.47562239 -529.74887606 270.25015593 -529.78894043 259.02435303 C-529.84874139 242.12979671 -529.87318919 225.23521711 -529.86069459 208.34056222 C-529.85758597 202.00907657 -529.87603732 195.67812643 -529.91168749 189.34674478 C-529.93024724 185.40546131 -529.93256186 181.46428416 -529.9307785 177.52296257 C-529.93343438 175.6972346 -529.94298389 173.87150146 -529.95998955 172.04585075 C-529.98236618 169.54994496 -529.980052 167.05520059 -529.97187805 164.55923462 C-529.98441331 163.83986398 -529.99694856 163.12049335 -530.00986367 162.3793236 C-529.9461621 156.33869647 -527.97488655 152.19877604 -523.90234375 147.7578125 C-519.44594434 144.31153029 -516.54716703 143.37714392 -510.99201965 143.34609985 C-509.84671783 143.33749939 -508.70141602 143.32889893 -507.52140808 143.32003784 C-506.26371109 143.31577789 -505.0060141 143.31151794 -503.71020508 143.30712891 C-502.37300403 143.29922562 -501.0358051 143.29095653 -499.6986084 143.28234863 C-495.30560334 143.25615106 -490.91258886 143.24082161 -486.51953125 143.2265625 C-485.00566795 143.22120157 -483.4918047 143.21582406 -481.97794151 143.21043015 C-475.67875525 143.18880326 -469.37957153 143.17006817 -463.08035755 143.15880775 C-454.06189148 143.14257896 -445.04385694 143.10942549 -436.02555352 143.05240691 C-429.67977295 143.01365798 -423.33410756 142.99416914 -416.98821181 142.98888719 C-413.20060693 142.98523998 -409.41346255 142.97328716 -405.6259861 142.94078445 C-402.05943826 142.91061649 -398.49362742 142.90442231 -394.92697906 142.91616821 C-393.00332724 142.91649268 -391.0797203 142.89208416 -389.15623474 142.86679077 C-382.04889557 142.91778458 -376.88853406 143.59938464 -371.5 148.5 C-367.1400101 154.08973064 -366.34789455 158.37260305 -366.29467773 165.27612305 C-366.27982834 166.46183899 -366.27982834 166.46183899 -366.26467896 167.67150879 C-366.23308607 170.28488162 -366.20831526 172.89827263 -366.18359375 175.51171875 C-366.16302231 177.32347588 -366.14202579 179.13522823 -366.12062073 180.94697571 C-366.06541965 185.71611664 -366.01600169 190.48530074 -365.96777344 195.2545166 C-365.9175441 200.12088871 -365.86186551 204.9871981 -365.80664062 209.85351562 C-365.69908306 219.40229018 -365.59763272 228.95111918 -365.5 238.5 C-364.41211182 237.76289795 -363.32422363 237.0257959 -362.20336914 236.26635742 C-342.22699549 222.73723246 -322.22470924 209.25107182 -302.0625 196 C-300.81120804 195.17751266 -300.81120804 195.17751266 -299.53463745 194.33840942 C-294.4004809 190.96463011 -289.26431309 187.59392156 -284.12762451 184.22399902 C-275.95660653 178.86294878 -267.78878522 173.49705813 -259.625 168.125 C-258.71996735 167.52964447 -257.81493469 166.93428894 -256.88247681 166.32089233 C-240.819734 155.74848921 -224.86031494 145.02673187 -208.95751953 134.21533203 C-201.55706215 129.1926407 -194.149146 124.21782483 -186.53515625 119.5234375 C-177.82815295 114.15490798 -169.38036597 108.41796889 -160.9211731 102.66943359 C-146.70207931 93.01066606 -132.44173047 83.41882674 -118.0625 74 C-117.36837006 73.545112 -116.67424011 73.090224 -115.95907593 72.62155151 C-112.35260129 70.2584991 -108.74509613 67.89702489 -105.13720703 65.53613281 C-96.4166444 59.82817072 -87.70651896 54.10435467 -79 48.375 C-78.08699127 47.77454865 -77.17398254 47.17409729 -76.23330688 46.55545044 C-65.5861494 39.54967553 -54.97557313 32.49356696 -44.421875 25.34765625 C-42.94509277 24.34816956 -42.94509277 24.34816956 -41.43847656 23.32849121 C-36.70554134 20.12316381 -31.97740053 16.91105164 -27.25585938 13.68896484 C-25.55084229 12.5308346 -23.84576726 11.37278968 -22.140625 10.21484375 C-21.38110535 9.69326187 -20.62158569 9.17167999 -19.83905029 8.6342926 C-6.97160931 -0.08399529 -6.97160931 -0.08399529 0 0 Z M-491.5 181.5 C-491.5 227.7 -491.5 273.9 -491.5 321.5 C-487.64111246 319.95644498 -485.00235794 318.65703309 -481.65234375 316.38671875 C-480.67587891 315.72978027 -479.69941406 315.0728418 -478.69335938 314.39599609 C-477.61892578 313.66719238 -476.54449219 312.93838867 -475.4375 312.1875 C-473.03185974 310.56616081 -470.62350378 308.94887996 -468.21484375 307.33203125 C-467.55398773 306.88794922 -466.89313171 306.44386719 -466.21224976 305.98632812 C-460.27049932 302.00055123 -454.29636395 298.06487548 -448.31640625 294.13671875 C-447.34485092 293.49822495 -446.37329559 292.85973114 -445.37229919 292.20188904 C-441.44835296 289.62369112 -437.52407194 287.04602015 -433.59689331 284.4727478 C-430.81302567 282.64827349 -428.03136514 280.82047377 -425.25 278.9921875 C-424.42991959 278.45619431 -423.60983917 277.92020111 -422.76490784 277.3679657 C-421.16330868 276.3138091 -419.57525687 275.23877174 -418.00166321 274.14324951 C-415.5 272.5 -415.5 272.5 -412.48503113 270.98223877 C-407.01427083 267.92202626 -407.01427083 267.92202626 -403.91019058 262.66262436 C-402.93987924 256.99865726 -403.23721087 251.28124614 -403.42578125 245.5625 C-403.44197548 243.92256782 -403.45318448 242.28257867 -403.45935059 240.64257812 C-403.51678103 234.59417915 -403.67035888 228.54700126 -403.8125 222.5 C-404.039375 208.97 -404.26625 195.44 -404.5 181.5 C-433.21 181.5 -461.92 181.5 -491.5 181.5 Z " fill="#D7AD60" transform="translate(896.5,-0.5)"/>
<path d="M0 0 C7.74122829 -0.07606971 15.48236016 -0.12860834 23.22387695 -0.16479492 C25.85737714 -0.17988057 28.49085221 -0.20035166 31.12426758 -0.22631836 C34.90973104 -0.26271019 38.69486227 -0.2797289 42.48046875 -0.29296875 C43.65772018 -0.30845261 44.83497162 -0.32393646 46.04789734 -0.33988953 C47.69904289 -0.34022942 47.69904289 -0.34022942 49.38354492 -0.34057617 C50.34951096 -0.34723801 51.31547699 -0.35389984 52.31071472 -0.36076355 C56.26830138 0.17014071 58.9709056 1.80825677 61.56787109 4.81567383 C65.6752623 11.23300156 69.18332523 17.89351938 72.625 24.6875 C73.86090802 27.10475787 75.10171515 29.51947909 76.34375 31.93359375 C76.65289337 32.53515289 76.96203674 33.13671204 77.2805481 33.75650024 C80.13959529 39.3040444 83.11388543 44.78392262 86.125 50.25 C90.18007942 57.61853972 94.13051427 65.03230699 98 72.5 C102.38910315 80.96969792 106.9016044 89.36158763 111.49560547 97.72167969 C115.12864471 104.35242081 118.64786053 111.03635161 122.125 117.75 C127.23064006 127.60723328 132.54465332 137.3324498 138 147 C140.5620907 144.4379093 141.4336416 141.93704569 142.84375 138.58984375 C143.12455414 137.92809647 143.40535828 137.26634918 143.69467163 136.58454895 C144.308671 135.13683875 144.92058723 133.68824374 145.53070068 132.2388916 C147.20982536 128.2521732 148.90620091 124.27280334 150.6015625 120.29296875 C150.95888458 119.45335602 151.31620667 118.61374329 151.68435669 117.74868774 C155.67636888 108.38435372 159.77197883 99.06609907 163.875 89.75 C165.39482505 86.29700425 166.91429125 82.8438507 168.43359375 79.390625 C168.81062943 78.5338063 169.1876651 77.67698761 169.5761261 76.79420471 C173.35528221 68.20132131 177.10627921 59.59624828 180.85324097 50.98928833 C181.92385518 48.53132636 182.99596799 46.07402384 184.06860352 43.61694336 C186.91769671 37.08883443 189.7661778 30.5608774 192.56755066 24.01211548 C193.3403052 22.20731594 194.11746184 20.4044032 194.89477539 18.6015625 C195.80537526 16.48900844 196.70883353 14.37335371 197.60327148 12.25390625 C197.99844971 11.34125 198.39362793 10.42859375 198.80078125 9.48828125 C199.13247314 8.71009033 199.46416504 7.93189941 199.8059082 7.13012695 C201.8755997 3.43802753 203.97822706 1.34059098 208 0 C209.6415845 -0.08738898 211.28651622 -0.11766621 212.93041992 -0.11352539 C213.93123093 -0.11344986 214.93204193 -0.11337433 215.96318054 -0.11329651 C217.04138565 -0.10813522 218.11959076 -0.10297394 219.23046875 -0.09765625 C220.33602615 -0.0962413 221.44158356 -0.09482635 222.5806427 -0.09336853 C226.11628917 -0.08776514 229.65187262 -0.07521204 233.1875 -0.0625 C235.58268138 -0.05748544 237.97786375 -0.05292246 240.37304688 -0.04882812 C246.24871947 -0.03779461 252.12435523 -0.02105316 258 0 C258.33 1.65 258.66 3.3 259 5 C257.9378125 5.15855469 256.875625 5.31710937 255.78125 5.48046875 C244.48657409 7.09934162 244.48657409 7.09934162 235 13 C230.78562026 18.90105846 230.45278005 24.52517269 230.65869141 31.57739258 C230.68219382 33.1342929 230.68219382 33.1342929 230.70617104 34.72264576 C230.9558233 47.7116948 231.64466867 60.68904463 232.34764051 73.65998435 C232.50183698 76.52043132 232.65184687 79.38109222 232.80189002 82.2417596 C233.15596923 88.99245078 233.51620852 95.74279205 233.88085938 102.49291992 C234.25446342 109.41032132 234.61868031 116.3281713 234.97818792 123.24631852 C235.29015566 129.24466869 235.60727987 135.24273066 235.92859232 141.24058753 C236.11915917 144.79799457 236.30803512 148.35546736 236.49216843 151.91321373 C236.69737886 155.8718412 236.91340243 159.82984062 237.13037109 163.7878418 C237.21776802 165.51262253 237.21776802 165.51262253 237.30693054 167.27224731 C238.08329167 181.94309599 238.08329167 181.94309599 242 196 C244.5446702 197.13096453 246.29074867 197.57696076 249 198 C250.65902344 198.27457031 250.65902344 198.27457031 252.3515625 198.5546875 C255.56422663 199.06563408 258.77904053 199.54470648 262 200 C262 201.32 262 202.64 262 204 C233.62 204 205.24 204 176 204 C176 202.68 176 201.36 176 200 C177.18078125 199.80664062 178.3615625 199.61328125 179.578125 199.4140625 C181.13547331 199.15137724 182.69276191 198.88833782 184.25 198.625 C185.02730469 198.49867188 185.80460938 198.37234375 186.60546875 198.2421875 C192.10151807 197.42483834 192.10151807 197.42483834 197 195 C201.73054228 187.27836672 200.0781582 175.98463315 199.57861328 167.30322266 C199.52184418 166.20229782 199.46507507 165.10137299 199.40658569 163.96708679 C199.21892251 160.36562068 199.01976201 156.76489347 198.8203125 153.1640625 C198.68608417 150.63645941 198.55254069 148.10881987 198.41964722 145.58114624 C198.14025686 140.29731646 197.85595023 135.01377755 197.56689453 129.73046875 C197.19817036 122.99083133 196.83793819 116.25077062 196.48085213 109.51050758 C196.13794431 103.04073746 195.79214726 96.57112319 195.4453125 90.1015625 C195.34738089 88.27471861 195.34738089 88.27471861 195.24747086 86.41096878 C194.27158332 68.19609607 194.27158332 68.19609607 193 50 C192.64439247 50.83490463 192.64439247 50.83490463 192.28160095 51.68667603 C191.94238113 52.48310516 191.60316132 53.2795343 191.25366211 54.10009766 C190.86651535 55.00905289 190.47936859 55.91800812 190.08049011 56.85450745 C189.19378725 58.93632751 188.30707844 61.01814504 187.42036438 63.09996033 C185.1447998 68.44252367 182.86928497 73.78510818 180.59398842 79.12778568 C179.25409829 82.27400663 177.9141684 85.42021065 176.57421875 88.56640625 C176.30210697 89.20532492 176.02999519 89.84424358 175.7496376 90.50252342 C172.32829659 98.53565308 168.9056149 106.56820895 165.480896 114.59989929 C164.025796 118.01265058 162.57123029 121.42562925 161.11669922 124.83862305 C159.21048267 129.31113091 157.30163519 133.78250355 155.39111328 138.25317383 C150.6901576 149.26386231 146.03811748 160.29176558 141.47265625 171.359375 C140.16797998 174.50682625 138.86227321 177.65384805 137.55627441 180.80075073 C136.33850838 183.74952177 135.13736546 186.70470605 133.93652344 189.66040039 C133.20460334 191.42628713 132.47190333 193.1918509 131.73828125 194.95703125 C131.41642349 195.76456848 131.09456573 196.57210571 130.76295471 197.40411377 C128.49541277 202.79047956 128.49541277 202.79047956 126.03947449 203.82914734 C124 204 124 204 121.53515625 202.12109375 C118.33068041 198.5623297 116.4587597 194.36222501 114.4375 190.0625 C110.99078811 182.95272836 107.39987496 175.96898222 103.5625 169.0625 C97.98837579 158.98566337 92.73497683 148.75540228 87.5 138.5 C82.0234725 127.77341044 76.49454865 117.0991279 70.64990234 106.56713867 C64.74238192 95.84323713 59.2320751 84.90858557 53.671875 74.00195312 C53.27628387 73.22704025 52.88069275 72.45212738 52.47311401 71.6537323 C51.73737242 70.21186381 51.00296129 68.76931514 50.27029419 67.32588196 C47.29266693 61.48888477 44.15662816 55.74183283 41 50 C39.41854674 100.55557469 39.41854674 100.55557469 38.70043945 151.12792969 C38.69189313 153.10745064 38.67831797 155.08695702 38.65942383 157.06640625 C38.54109989 170.69357561 38.90568076 182.04190669 48 193 C53.10154363 197.61568233 59.43749613 198.59830015 66 200 C66 201.32 66 202.64 66 204 C43.23 204 20.46 204 -3 204 C-3 202.68 -3 201.36 -3 200 C-2.23816406 199.85304688 -1.47632813 199.70609375 -0.69140625 199.5546875 C8.11953229 197.64070085 15.62583348 194.96020009 20.875 187.25 C28.30355173 173.7761441 27.22952476 157.85049173 27.53515625 142.9375 C27.57835561 140.94490099 27.62177149 138.95230667 27.66539001 136.9597168 C27.75616327 132.77039548 27.84404754 128.58102587 27.92993164 124.39160156 C28.01631467 120.18773403 28.1063663 115.98397589 28.20043945 111.78027344 C28.45170936 100.53697226 28.6763365 89.29393694 28.84733009 78.04910278 C28.94153503 71.99864759 29.07296485 65.95041662 29.23157215 59.90132141 C29.32577949 56.03656793 29.38996223 52.17171248 29.44662285 48.3062439 C29.47912852 46.5034215 29.52385914 44.70077027 29.58192635 42.89859009 C29.99422469 30.05069374 29.99422469 30.05069374 23.91664124 18.9621582 C23.28414963 18.314646 22.65165802 17.66713379 22 17 C21.28899643 16.23308838 20.57799286 15.46617676 19.84544373 14.67602539 C14.19749342 8.7971011 7.79868813 6.8321493 0 5 C0 3.35 0 1.7 0 0 Z " fill="#D7AD60" transform="translate(636,315)"/>
<path d="M0 0 C1.10560776 0.00223572 1.10560776 0.00223572 2.23355103 0.0045166 C50.30333705 0.17833705 50.30333705 0.17833705 61.4375 11.3125 C61.81325436 14.12254718 62.13112594 16.91813145 62.41015625 19.73828125 C62.49752548 20.59624802 62.58489471 21.45421478 62.6749115 22.33818054 C62.85950252 24.16476186 63.04176763 25.99157946 63.22192383 27.81860352 C63.49513151 30.57586629 63.77925954 33.33184526 64.06445312 36.08789062 C64.98428889 45.1830804 65.76612576 54.15691571 65.4375 63.3125 C64.1175 63.3125 62.7975 63.3125 61.4375 63.3125 C61.17646484 62.81959473 60.91542969 62.32668945 60.64648438 61.81884766 C55.61509086 52.3794776 50.73359927 43.22782541 43.4375 35.3125 C42.59445312 34.38953125 41.75140625 33.4665625 40.8828125 32.515625 C28.63590612 19.67892426 12.28386018 9.67284657 -5.83203125 9.01171875 C-25.66866965 8.79914538 -42.93035223 12.90047897 -58.32421875 26.12109375 C-77.63445099 45.02692322 -85.42145434 69.87179133 -85.91186523 96.33569336 C-86.10525685 126.33717961 -79.43442965 155.7044579 -58.5625 178.3125 C-57.97855469 178.96476563 -57.39460937 179.61703125 -56.79296875 180.2890625 C-44.11501438 193.76866738 -24.1222735 203.55752616 -5.5625 204.3125 C-4.36882812 204.3640625 -3.17515625 204.415625 -1.9453125 204.46875 C8.49594246 204.77008492 20.24721498 204.68375652 28.4375 197.3125 C37.89571705 183.65063093 36.55303961 163.10852912 34.4375 147.3125 C33.33757686 142.94013472 31.96107348 139.26401096 28.4375 136.3125 C21.90216258 133.19789928 14.81681793 132.8801613 7.70825195 132.60302734 C2.52424258 132.39924258 2.52424258 132.39924258 1.4375 131.3125 C1.4375 129.6625 1.4375 128.0125 1.4375 126.3125 C28.8275 126.3125 56.2175 126.3125 84.4375 126.3125 C85.4375 130.3125 85.4375 130.3125 84.4375 132.3125 C82.44140625 132.76953125 82.44140625 132.76953125 80 133.125 C76.3423176 133.76827604 76.3423176 133.76827604 73.9375 136.4375 C72.81354104 142.90026401 72.28631085 149.14138971 72.3046875 155.6875 C72.30373077 156.45626465 72.30277405 157.2250293 72.30178833 158.01708984 C72.30111265 159.63053469 72.30292387 161.24398236 72.30712891 162.85742188 C72.31248589 165.30605258 72.30716299 167.7544999 72.30078125 170.203125 C72.30144214 171.7812504 72.30272353 173.35937568 72.3046875 174.9375 C72.30165115 176.019104 72.30165115 176.019104 72.29855347 177.12255859 C72.32039355 181.93323736 72.78950588 186.54550056 73.4375 191.3125 C73.54728139 194.64985428 73.48386298 197.9743658 73.4375 201.3125 C65.74973332 204.17558792 58.08598161 205.57846173 50 206.875 C48.14084961 207.18727539 48.14084961 207.18727539 46.24414062 207.50585938 C30.32778196 210.11362435 14.69050219 211.66895235 -1.44873047 211.62817383 C-4.06129317 211.62500147 -6.67273097 211.64864753 -9.28515625 211.67382812 C-42.58243785 211.79888173 -75.09228699 201.65940006 -99.3125 178.125 C-116.61432969 160.55542865 -126.65824598 136.96325076 -127.5625 112.3125 C-127.60246094 111.55582031 -127.64242187 110.79914063 -127.68359375 110.01953125 C-128.45790214 82.82764249 -119.01628522 58.68006667 -101.0390625 38.4765625 C-74.74425372 10.9479797 -37.24443791 -0.18766393 0 0 Z " fill="#D7AD60" transform="translate(1072.5625,311.6875)"/>
<path d="M0 0 C2.875 2.5 2.875 2.5 5 5 C5.680625 5.70125 6.36125 6.4025 7.0625 7.125 C14.63492438 18.36150069 14.48892169 31.85243734 12.375 44.83984375 C7.31088144 64.57634153 -4.98700555 84.40598783 -22.70166016 95.01953125 C-35.47358946 102.25195473 -47.85461832 105.16510726 -62.5390625 102.3125 C-69.5497488 100.34228371 -78.4373852 97.52701668 -82.23828125 90.8125 C-82.48964844 90.214375 -82.74101562 89.61625 -83 89 C-82.01 88.01 -81.02 87.02 -80 86 C-78.03971406 86.96932462 -76.09357923 87.94870175 -74.17578125 89 C-64.20233398 94.35262579 -54.6868647 95.13064828 -43.73046875 92.09375 C-24.31340084 85.2758946 -12.53576541 70.72203761 -3.71484375 52.83886719 C1.42285798 42.14041884 5.59508251 30.01514445 2.17578125 18.13671875 C1.20467318 15.6999234 0.16601646 13.34905506 -1 11 C-1.29132813 10.2884375 -1.58265625 9.576875 -1.8828125 8.84375 C-3.29213235 6.51787947 -4.50129859 6.00316189 -7 5 C-7.94166016 4.57847656 -7.94166016 4.57847656 -8.90234375 4.1484375 C-21.91432784 -0.79661595 -35.68190239 2.25921929 -48.05078125 7.73046875 C-86.50060382 25.728356 -112.31984236 62.46476708 -127.63671875 101.0078125 C-134.25913688 119.42330557 -136.50093456 138.51211962 -129 157 C-123.74414747 167.39953748 -115.60035271 173.86197584 -104.89453125 178.08984375 C-87.56742249 183.53817889 -67.98615742 179.03254516 -52.18310547 171.08642578 C-42.70551784 166.08717729 -34.94185444 159.88061991 -27.36474609 152.34570312 C-26.20195259 151.19913464 -25.00464701 150.08774042 -23.80078125 148.984375 C-15.51667313 141.25478121 -9.20432081 131.42244983 -3 122 C-0.67563406 122.89975456 0.69400096 123.43436542 1.90234375 125.66796875 C2.05817604 129.38924379 -0.21588699 131.7285918 -2.375 134.5625 C-2.83398682 135.18165283 -3.29297363 135.80080566 -3.76586914 136.4387207 C-5.16090953 138.3055812 -6.5761202 140.15507232 -8 142 C-8.75410156 142.98226562 -9.50820313 143.96453125 -10.28515625 144.9765625 C-27.67152391 166.87518166 -50.67373652 184.17595443 -79 188 C-98.10265899 189.14917377 -114.05961926 186.05312416 -129.3125 173.6875 C-140.81362033 162.97380077 -147.4125698 147.50429753 -148.28515625 131.921875 C-149.501821 93.99669664 -127.46616202 58.36676968 -102.40625 31.54882812 C-78.35263547 6.28320976 -34.42846634 -21.29532588 0 0 Z " fill="#D7AD60" transform="translate(400,520)"/>
<path d="M0 0 C4.94667011 2.38173005 7.15433249 4.85155905 9 10 C9.49975743 12.993645 9.80486945 15.97211216 10 19 C10.41507813 18.57589844 10.83015625 18.15179687 11.2578125 17.71484375 C18.17048779 11.13478673 27.65054214 4.68744504 37.5 4.375 C43.08946006 4.85069873 46.56174992 6.72518743 50.75 10.4375 C54.64255431 15.51419705 55.08042187 22.19542708 54.94921875 28.40234375 C53.15903386 41.01991194 45.06817729 53.43279814 38.4140625 64.02758789 C34.71944757 70.02613974 31.30013398 76.76805114 32 84 C40.13878195 83.82683443 44.71050578 79.20162793 50.33984375 73.72265625 C59.75055845 63.82386559 67.50563346 52.38636848 75 41 C76.9375 41.75 76.9375 41.75 79 43 C79.76928711 44.82958984 79.76928711 44.82958984 80 47 C79.13891602 48.94775391 79.13891602 48.94775391 77.75390625 50.9765625 C77.24988281 51.72526611 76.74585938 52.47396973 76.2265625 53.24536133 C75.67742187 54.03064209 75.12828125 54.81592285 74.5625 55.625 C74.01207031 56.43026123 73.46164062 57.23552246 72.89453125 58.06518555 C68.84591341 63.93296185 64.58987478 69.54430793 60 75 C59.36449219 75.82757812 58.72898437 76.65515625 58.07421875 77.5078125 C52.18430419 84.58458367 43.91136339 90.89785567 34.6484375 92.375 C29.29898477 92.66125834 26.16109323 91.56665134 22 88 C18.7649977 84.98810131 18.25676298 81.72567096 17.953125 77.4609375 C18.20848118 64.0547382 28.35257181 50.43591848 35.3125 39.5 C42.51351696 28.64065333 42.51351696 28.64065333 44 16 C43.505 14.515 43.505 14.515 43 13 C35.46042602 12.37170217 30.75996274 14.72687894 24.98828125 19.48046875 C12.56710604 30.4119233 2.75751955 43.43762126 -7.17431641 56.5859375 C-9.86458908 60.14322771 -12.5676986 63.69069768 -15.27075195 67.23828125 C-16.63341097 69.02670205 -17.9952789 70.81572599 -19.35620117 72.60546875 C-23.53580337 78.09808237 -27.75421132 83.55836903 -32 89 C-35.63 87.68 -39.26 86.36 -43 85 C-41.17128135 80.42820338 -39.52745907 77.89016271 -36.5 74.125 C-13.39590467 45.46543254 -13.39590467 45.46543254 -2.9375 11.75 C-2.958125 10.5125 -2.97875 9.275 -3 8 C-3.99 7.67 -4.98 7.34 -6 7 C-16.70433633 12.59544853 -22.51986522 24.18373209 -28.74902344 34.03417969 C-31.10206769 37.73182066 -33.54752407 41.36785211 -36 45 C-37.65 44.34 -39.3 43.68 -41 43 C-40.43508036 39.35159394 -39.50030244 36.78169242 -37.5234375 33.671875 C-37.02078369 32.87604004 -36.51812988 32.08020508 -36.00024414 31.26025391 C-35.19574829 30.01767822 -35.19574829 30.01767822 -34.375 28.75 C-33.83029053 27.89970215 -33.28558105 27.0494043 -32.72436523 26.17333984 C-14.67088982 -1.75359121 -14.67088982 -1.75359121 0 0 Z " fill="#D7AD60" transform="translate(1556,601)"/>
<path d="M0 0 C4.94667011 2.38173005 7.15433249 4.85155905 9 10 C9.49975743 12.993645 9.80486945 15.97211216 10 19 C10.41507813 18.57589844 10.83015625 18.15179687 11.2578125 17.71484375 C18.17048779 11.13478673 27.65054214 4.68744504 37.5 4.375 C43.08946006 4.85069873 46.56174992 6.72518743 50.75 10.4375 C54.64255431 15.51419705 55.08042187 22.19542708 54.94921875 28.40234375 C53.15903386 41.01991194 45.06817729 53.43279814 38.4140625 64.02758789 C34.71944757 70.02613974 31.30013398 76.76805114 32 84 C40.13878195 83.82683443 44.71050578 79.20162793 50.33984375 73.72265625 C59.75055845 63.82386559 67.50563346 52.38636848 75 41 C76.9375 41.75 76.9375 41.75 79 43 C79.76928711 44.82958984 79.76928711 44.82958984 80 47 C79.13891602 48.94775391 79.13891602 48.94775391 77.75390625 50.9765625 C77.24988281 51.72526611 76.74585938 52.47396973 76.2265625 53.24536133 C75.67742187 54.03064209 75.12828125 54.81592285 74.5625 55.625 C74.01207031 56.43026123 73.46164062 57.23552246 72.89453125 58.06518555 C68.84591341 63.93296185 64.58987478 69.54430793 60 75 C59.36449219 75.82757812 58.72898437 76.65515625 58.07421875 77.5078125 C52.18430419 84.58458367 43.91136339 90.89785567 34.6484375 92.375 C29.29898477 92.66125834 26.16109323 91.56665134 22 88 C18.7649977 84.98810131 18.25676298 81.72567096 17.953125 77.4609375 C18.20848118 64.0547382 28.35257181 50.43591848 35.3125 39.5 C42.51351696 28.64065333 42.51351696 28.64065333 44 16 C43.505 14.515 43.505 14.515 43 13 C35.46042602 12.37170217 30.75996274 14.72687894 24.98828125 19.48046875 C12.56710604 30.4119233 2.75751955 43.43762126 -7.17431641 56.5859375 C-9.86458908 60.14322771 -12.5676986 63.69069768 -15.27075195 67.23828125 C-16.63341097 69.02670205 -17.9952789 70.81572599 -19.35620117 72.60546875 C-23.53580337 78.09808237 -27.75421132 83.55836903 -32 89 C-35.63 87.68 -39.26 86.36 -43 85 C-41.17128135 80.42820338 -39.52745907 77.89016271 -36.5 74.125 C-13.39590467 45.46543254 -13.39590467 45.46543254 -2.9375 11.75 C-2.958125 10.5125 -2.97875 9.275 -3 8 C-3.99 7.67 -4.98 7.34 -6 7 C-16.70433633 12.59544853 -22.51986522 24.18373209 -28.74902344 34.03417969 C-31.10206769 37.73182066 -33.54752407 41.36785211 -36 45 C-37.65 44.34 -39.3 43.68 -41 43 C-40.43508036 39.35159394 -39.50030244 36.78169242 -37.5234375 33.671875 C-37.02078369 32.87604004 -36.51812988 32.08020508 -36.00024414 31.26025391 C-35.19574829 30.01767822 -35.19574829 30.01767822 -34.375 28.75 C-33.83029053 27.89970215 -33.28558105 27.0494043 -32.72436523 26.17333984 C-14.67088982 -1.75359121 -14.67088982 -1.75359121 0 0 Z " fill="#D7AD60" transform="translate(588,601)"/>
<path d="M0 0 C3.95008059 0.68379546 6.63457018 1.78843183 10 4 C8.41379688 9.6246398 5.71616644 14.37688993 2.875 19.4375 C-2.03229578 28.31725901 -6.81740514 37.25478162 -11.49383545 46.25784302 C-12.19988436 47.61532073 -12.90837812 48.97152995 -13.6194458 50.3263855 C-20.52925329 62.11034566 -20.52925329 62.11034566 -22.6875 75.0625 C-22.460625 75.701875 -22.23375 76.34125 -22 77 C-8.30412257 74.82870236 0.75406465 61.22291228 8.40332031 50.73144531 C10.9620659 47.17273018 13.49396163 43.59601193 16 40 C17.875 40.3125 17.875 40.3125 20 41 C20.66 41.99 21.32 42.98 22 44 C15.11392225 54.85958219 8.17235037 64.94141522 -1 74 C-2.04607422 75.06154297 -2.04607422 75.06154297 -3.11328125 76.14453125 C-8.29631312 81.07827902 -14.16006464 84.61810494 -21.42578125 85.19140625 C-27.09916421 84.87674804 -30.07281369 83.02536597 -34 79 C-35.44207941 76.11584117 -35.09394887 73.58278472 -35.0625 70.375 C-35.05347656 69.18648437 -35.04445313 67.99796875 -35.03515625 66.7734375 C-35.02355469 65.85820313 -35.01195312 64.94296875 -35 64 C-35.73863281 64.78503906 -36.47726562 65.57007813 -37.23828125 66.37890625 C-43.61369392 73.02962324 -49.84924662 78.53990775 -58 83 C-59.11375 83.639375 -60.2275 84.27875 -61.375 84.9375 C-67.92422747 86.85710115 -75.8374106 87.61999891 -82.0625 84.3125 C-86.54823216 80.78117894 -89.21913147 77.41806611 -91 72 C-92.99498583 53.20513347 -85.49169498 38.40635255 -74.0625 23.8125 C-69.86223375 18.73580024 -65.46631563 13.84278667 -61 9 C-60.49210938 8.41476562 -59.98421875 7.82953125 -59.4609375 7.2265625 C-58.1875 5.8125 -58.1875 5.8125 -56 4 C-52.88810326 4.09152637 -51.65325623 5.23116251 -49 7 C-50.67154887 12.09569141 -53.68377032 16.18248099 -56.6875 20.5625 C-73.26581781 44.77519622 -73.26581781 44.77519622 -77.58203125 73.0546875 C-76.85820129 75.47393127 -76.00342225 76.47758589 -74 78 C-66.98790444 78.96718559 -62.70098825 76.99426606 -57 73 C-49.93391993 67.62203044 -43.56739067 61.94763961 -38 55 C-36.7315625 53.48599609 -36.7315625 53.48599609 -35.4375 51.94140625 C-22.02735316 35.77068262 -10.71128621 18.03771691 0 0 Z " fill="#D7AD60" transform="translate(1069,602)"/>
<path d="M0 0 C2.61580479 0.3269756 4.64078137 0.82039068 7 2 C6.46043086 7.04251886 4.04085882 10.65375649 1.4375 14.875 C-3.38869734 22.76264844 -7.63002537 30.80629757 -12 39 C-0.12 39 11.76 39 24 39 C23.34 41.31 22.68 43.62 22 46 C9.13 46 -3.74 46 -17 46 C-17.99 48.97 -18.98 51.94 -20 55 C-20.69451752 56.63282791 -21.42088533 58.25307835 -22.19921875 59.84765625 C-22.60011719 60.68844727 -23.00101563 61.52923828 -23.4140625 62.39550781 C-23.83429688 63.27561523 -24.25453125 64.15572266 -24.6875 65.0625 C-28.45241772 73.14485654 -31.68667319 81.28888163 -34.5 89.75 C-34.82572998 90.72461182 -35.15145996 91.69922363 -35.48706055 92.70336914 C-40.53162859 107.94516426 -40.53162859 107.94516426 -38.6875 123.4375 C-36.87369235 126.1918005 -35.39502877 127.70330676 -32.08984375 128.40625 C-23.17512197 128.79455004 -17.11546754 123.9232134 -10.5 118.4375 C-1.76364492 110.34942569 4.87250325 100.12457244 11 90 C12.65 90.66 14.3 91.32 16 92 C16 96.84204864 14.25604707 99.48682913 11.75 103.4375 C11.30470947 104.14253662 10.85941895 104.84757324 10.40063477 105.57397461 C2.26868236 118.05796239 -9.29582216 131.54053623 -24 136 C-31.16211334 137.50508179 -37.42047101 137.41603828 -44 134 C-50.01278937 129.32338605 -52.94969671 123.19665029 -54 115.75 C-55.22169396 91.43829017 -42.50786241 67.05372794 -32 46 C-37.94 46 -43.88 46 -50 46 C-49.34 43.69 -48.68 41.38 -48 39 C-41.07 39 -34.14 39 -27 39 C-26.34 37.35 -25.68 35.7 -25 34 C-18.1323689 21.783139 -9.93980615 9.93980615 0 0 Z " fill="#D7AD60" transform="translate(1279,552)"/>
<path d="M0 0 C2.61580479 0.3269756 4.64078137 0.82039068 7 2 C6.46043086 7.04251886 4.04085882 10.65375649 1.4375 14.875 C-3.38869734 22.76264844 -7.63002537 30.80629757 -12 39 C-0.12 39 11.76 39 24 39 C23.34 41.31 22.68 43.62 22 46 C9.13 46 -3.74 46 -17 46 C-17.99 48.97 -18.98 51.94 -20 55 C-20.69451752 56.63282791 -21.42088533 58.25307835 -22.19921875 59.84765625 C-22.60011719 60.68844727 -23.00101563 61.52923828 -23.4140625 62.39550781 C-23.83429687 63.27561523 -24.25453125 64.15572266 -24.6875 65.0625 C-28.45241772 73.14485654 -31.68667319 81.28888163 -34.5 89.75 C-34.82572998 90.72461182 -35.15145996 91.69922363 -35.48706055 92.70336914 C-40.53162859 107.94516426 -40.53162859 107.94516426 -38.6875 123.4375 C-36.87369235 126.1918005 -35.39502877 127.70330676 -32.08984375 128.40625 C-23.17512197 128.79455004 -17.11546754 123.9232134 -10.5 118.4375 C-1.76364492 110.34942569 4.87250325 100.12457244 11 90 C12.65 90.66 14.3 91.32 16 92 C16 96.84204864 14.25604707 99.48682913 11.75 103.4375 C11.30470947 104.14253662 10.85941895 104.84757324 10.40063477 105.57397461 C2.26868236 118.05796239 -9.29582216 131.54053623 -24 136 C-31.16211334 137.50508179 -37.42047101 137.41603828 -44 134 C-50.01278937 129.32338605 -52.94969671 123.19665029 -54 115.75 C-55.22169396 91.43829017 -42.50786241 67.05372794 -32 46 C-37.94 46 -43.88 46 -50 46 C-49.34 43.69 -48.68 41.38 -48 39 C-41.07 39 -34.14 39 -27 39 C-26.34 37.35 -25.68 35.7 -25 34 C-18.1323689 21.783139 -9.93980615 9.93980615 0 0 Z " fill="#D7AD60" transform="translate(841,552)"/>
<path d="M0 0 C6.4701683 7.76420196 7.14249797 16.68859921 6.42822266 26.484375 C5.47961504 34.91986343 3.20616312 43.14038388 -0.8125 50.625 C6.63081669 49.78073491 11.11229928 47.11450282 16.1875 41.625 C16.6825 40.635 16.6825 40.635 17.1875 39.625 C22.0625 41.375 22.0625 41.375 23.1875 43.625 C18.12523277 50.00029279 13.03567821 55.0089406 5.1875 57.625 C3.29279184 57.6935495 1.3958166 57.70980372 -0.5 57.6875 C-1.49386719 57.67847656 -2.48773437 57.66945313 -3.51171875 57.66015625 C-4.65060547 57.64275391 -4.65060547 57.64275391 -5.8125 57.625 C-6.05871094 58.35074219 -6.30492187 59.07648437 -6.55859375 59.82421875 C-11.63505288 71.16322559 -24.51226502 81.07914 -35.8125 85.625 C-43.58417592 88.49061796 -53.17280614 89.21061487 -60.89453125 85.8671875 C-66.88314312 81.98861606 -71.07108661 76.51382651 -72.8125 69.625 C-74.4494774 52.8364643 -68.82921799 38.92267601 -58.4375 25.9375 C-50.33547216 16.42877617 -41.78587079 8.73558942 -30.8125 2.625 C-28.625 2.625 -28.625 2.625 -26.8125 3.625 C-26.09722361 5.27139057 -25.42616463 6.93809812 -24.8125 8.625 C-25.63492187 9.34042969 -26.45734375 10.05585937 -27.3046875 10.79296875 C-43.23623485 24.90000029 -56.46181611 42.11432372 -59.0859375 63.89453125 C-59.32717988 68.7472145 -58.25987345 72.46446514 -55.8125 76.625 C-52.27448338 79.38637882 -49.42388106 79.84409607 -45.0625 79.625 C-32.91218812 77.8477902 -23.54252746 69.57520032 -15.94140625 60.35546875 C-14.83782373 58.82045737 -13.81127764 57.23017835 -12.8125 55.625 C-13.19921875 55.1403125 -13.5859375 54.655625 -13.984375 54.15625 C-22.26908959 43.49275597 -26.21441549 32.32063593 -24.8125 18.625 C-23.33629755 11.35173975 -20.69946483 4.48814486 -14.8125 -0.375 C-9.76764252 -2.05661916 -4.83924411 -2.36585268 0 0 Z M-14.7421875 9.7890625 C-19.03571939 17.15387997 -18.39821378 25.60523768 -16.625 33.625 C-15.262443 38.71360151 -13.54104542 43.76004438 -9.8125 47.625 C-8.8225 47.625 -7.8325 47.625 -6.8125 47.625 C-5.99622554 45.23039412 -5.18438355 42.83443474 -4.375 40.4375 C-4.14490234 39.76396484 -3.91480469 39.09042969 -3.67773438 38.39648438 C-0.76186479 29.73339359 1.47704808 19.22871382 -2.1875 10.4375 C-3.66552948 7.59963093 -3.66552948 7.59963093 -5.8125 5.625 C-10.24332761 4.66698322 -12.10254957 6.25294376 -14.7421875 9.7890625 Z " fill="#D7AD60" transform="translate(1464.8125,602.375)"/>
<path d="M0 0 C6.4701683 7.76420196 7.14249797 16.68859921 6.42822266 26.484375 C5.47961504 34.91986343 3.20616312 43.14038388 -0.8125 50.625 C6.63081669 49.78073491 11.11229928 47.11450282 16.1875 41.625 C16.6825 40.635 16.6825 40.635 17.1875 39.625 C22.0625 41.375 22.0625 41.375 23.1875 43.625 C18.12523277 50.00029279 13.03567821 55.0089406 5.1875 57.625 C3.29279184 57.6935495 1.3958166 57.70980372 -0.5 57.6875 C-1.49386719 57.67847656 -2.48773438 57.66945313 -3.51171875 57.66015625 C-4.65060547 57.64275391 -4.65060547 57.64275391 -5.8125 57.625 C-6.05871094 58.35074219 -6.30492187 59.07648437 -6.55859375 59.82421875 C-11.63505288 71.16322559 -24.51226502 81.07914 -35.8125 85.625 C-43.58417592 88.49061796 -53.17280614 89.21061487 -60.89453125 85.8671875 C-66.88314312 81.98861606 -71.07108661 76.51382651 -72.8125 69.625 C-74.4494774 52.8364643 -68.82921799 38.92267601 -58.4375 25.9375 C-50.33547216 16.42877617 -41.78587079 8.73558942 -30.8125 2.625 C-28.625 2.625 -28.625 2.625 -26.8125 3.625 C-26.09722361 5.27139057 -25.42616463 6.93809812 -24.8125 8.625 C-25.63492188 9.34042969 -26.45734375 10.05585937 -27.3046875 10.79296875 C-43.23623485 24.90000029 -56.46181611 42.11432372 -59.0859375 63.89453125 C-59.32717988 68.7472145 -58.25987345 72.46446514 -55.8125 76.625 C-52.27448338 79.38637882 -49.42388106 79.84409607 -45.0625 79.625 C-32.91218812 77.8477902 -23.54252746 69.57520032 -15.94140625 60.35546875 C-14.83782373 58.82045737 -13.81127764 57.23017835 -12.8125 55.625 C-13.19921875 55.1403125 -13.5859375 54.655625 -13.984375 54.15625 C-22.26908959 43.49275597 -26.21441549 32.32063593 -24.8125 18.625 C-23.33629755 11.35173975 -20.69946483 4.48814486 -14.8125 -0.375 C-9.76764252 -2.05661916 -4.83924411 -2.36585268 0 0 Z M-14.7421875 9.7890625 C-19.03571939 17.15387997 -18.39821378 25.60523768 -16.625 33.625 C-15.262443 38.71360151 -13.54104542 43.76004438 -9.8125 47.625 C-8.8225 47.625 -7.8325 47.625 -6.8125 47.625 C-5.99622554 45.23039412 -5.18438355 42.83443474 -4.375 40.4375 C-4.14490234 39.76396484 -3.91480469 39.09042969 -3.67773438 38.39648438 C-0.76186479 29.73339359 1.47704808 19.22871382 -2.1875 10.4375 C-3.66552948 7.59963093 -3.66552948 7.59963093 -5.8125 5.625 C-10.24332761 4.66698322 -12.10254957 6.25294376 -14.7421875 9.7890625 Z " fill="#D7AD60" transform="translate(496.8125,602.375)"/>
<path d="M0 0 C1.25941406 -0.01675781 2.51882813 -0.03351562 3.81640625 -0.05078125 C9.12051131 0.4813458 12.33283939 2.35192555 16.3125 5.8125 C19.09731845 9.44448005 19.07573523 13.03888796 18.86328125 17.48828125 C18.05648755 22.83976607 16.21418814 27.35814305 12.5625 31.375 C9.64331319 32.66287653 7.59566381 32.70727048 4.4375 32.3125 C2.0625 31.1875 2.0625 31.1875 0.4375 29.3125 C-0.2112259 25.58232608 0.15922625 23.81339276 2 20.5 C5.09535068 17.72212119 7.35300495 17.54814395 11.4375 17.3125 C10.33963575 11.90462615 10.33963575 11.90462615 6.4375 8.3125 C-3.84052141 6.63970778 -11.56066082 10.09582324 -19.84765625 15.91796875 C-33.27016783 26.80597911 -39.77305789 43.55368635 -41.5625 60.3125 C-41.76255167 67.09758568 -40.94832444 73.87354446 -36.5625 79.3125 C-30.63923617 83.0290577 -24.80672859 83.12609015 -18.1171875 81.84375 C0.98740861 76.81307265 14.95172984 60.1591623 25.4375 44.3125 C30.3125 46.0625 30.3125 46.0625 31.4375 48.3125 C22.49790304 66.95104193 5.28057431 82.32562524 -14.03515625 89.19140625 C-24.20508409 91.83078861 -34.1567486 90.93903032 -43.5625 86.3125 C-49.90827037 82.31701495 -53.3723385 76.04320483 -55.18359375 68.84375 C-57.37086792 54.23185657 -53.6789877 39.59824733 -45.5625 27.3125 C-42.25620965 22.9592389 -38.46975993 19.12321427 -34.5625 15.3125 C-33.881875 14.62285156 -33.20125 13.93320312 -32.5 13.22265625 C-23.71672576 4.86024724 -12.09100212 0.03720308 0 0 Z " fill="#D7AD60" transform="translate(1170.5625,597.6875)"/>
<path d="M0 0 C2.26662197 1.06364023 3.82088854 1.7984996 5.5 3.6875 C6.2022717 6.93550663 4.64779186 8.29029401 2.96533203 10.9765625 C-0.53395004 18.31142588 2.97541171 27.56544747 5 34.875 C9.10432588 50.87025267 10.2170073 65.4449978 4 81 C3.505 82.485 3.505 82.485 3 84 C14.28743798 73.9353678 23.59675144 63.58542088 32 51 C33.9375 51.8125 33.9375 51.8125 36 53 C37 56 37 56 35.8828125 58.3125 C24.49217553 75.7275183 9.68657472 93.89992569 -11.4375 99.3125 C-21.23666717 101.10987811 -30.32997087 100.57458358 -38.875 95.1875 C-41.39286025 92.59558504 -42.75322414 90.39400096 -44 87 C-43.6875 84.125 -43.6875 84.125 -43 82 C-41.68 82 -40.36 82 -39 82 C-37.6273318 83.97321053 -36.29572383 85.97543152 -35 88 C-31.57874433 90.59543534 -28.17543415 90.42462042 -24 90 C-17.89167864 87.42807522 -14.2311924 83.78065924 -11 78 C-7.87450938 70.32562654 -5.87572891 62.9671664 -5.8671875 54.66796875 C-5.86589844 53.45689453 -5.86460938 52.24582031 -5.86328125 50.99804688 C-5.86908203 49.11182617 -5.86908203 49.11182617 -5.875 47.1875 C-5.87113281 45.94162109 -5.86726563 44.69574219 -5.86328125 43.41210938 C-5.8698923 37.18119429 -6.02650328 31.15775304 -7 25 C-9.22971733 28.49964947 -11.45867267 31.99978366 -13.6875 35.5 C-14.31333984 36.48226562 -14.93917969 37.46453125 -15.58398438 38.4765625 C-19.08092212 43.96913488 -22.55848757 49.47252306 -26 55 C-27.65 54.34 -29.3 53.68 -31 53 C-28.45566321 34.99138246 -10.03569523 14.77304205 0 0 Z " fill="#D7AD60" transform="translate(1695,591)"/>
<path d="M0 0 C2.26662197 1.06364023 3.82088854 1.7984996 5.5 3.6875 C6.2022717 6.93550663 4.64779186 8.29029401 2.96533203 10.9765625 C-0.53395004 18.31142588 2.97541171 27.56544747 5 34.875 C9.10432588 50.87025267 10.2170073 65.4449978 4 81 C3.505 82.485 3.505 82.485 3 84 C14.28743798 73.9353678 23.59675144 63.58542088 32 51 C33.9375 51.8125 33.9375 51.8125 36 53 C37 56 37 56 35.8828125 58.3125 C24.49217553 75.7275183 9.68657472 93.89992569 -11.4375 99.3125 C-21.23666717 101.10987811 -30.32997087 100.57458358 -38.875 95.1875 C-41.39286025 92.59558504 -42.75322414 90.39400096 -44 87 C-43.6875 84.125 -43.6875 84.125 -43 82 C-41.68 82 -40.36 82 -39 82 C-37.6273318 83.97321053 -36.29572383 85.97543152 -35 88 C-31.57874433 90.59543534 -28.17543415 90.42462042 -24 90 C-17.89167864 87.42807522 -14.2311924 83.78065924 -11 78 C-7.87450938 70.32562654 -5.87572891 62.9671664 -5.8671875 54.66796875 C-5.86589844 53.45689453 -5.86460937 52.24582031 -5.86328125 50.99804688 C-5.86908203 49.11182617 -5.86908203 49.11182617 -5.875 47.1875 C-5.87113281 45.94162109 -5.86726562 44.69574219 -5.86328125 43.41210938 C-5.8698923 37.18119429 -6.02650328 31.15775304 -7 25 C-9.22971733 28.49964947 -11.45867267 31.99978366 -13.6875 35.5 C-14.31333984 36.48226562 -14.93917969 37.46453125 -15.58398438 38.4765625 C-19.08092212 43.96913488 -22.55848757 49.47252306 -26 55 C-27.65 54.34 -29.3 53.68 -31 53 C-28.45566321 34.99138246 -10.03569523 14.77304205 0 0 Z " fill="#D7AD60" transform="translate(727,591)"/>
<path d="M0 0 C2.475 0.495 2.475 0.495 5 1 C4.731875 2.2375 4.46375 3.475 4.1875 4.75 C4.13415858 7.56820498 4.41594849 9.30864601 6.25976562 11.49121094 C8.50937361 13.64605521 10.83472502 15.65321465 13.2878418 17.57324219 C16.49680747 20.17297779 17.8330576 21.42497619 19.01953125 25.51171875 C18.96059279 36.03812725 11.91882474 46.13358239 6.83496094 55.02026367 C3.52146131 60.8418506 0.66661671 65.99835139 0.875 72.875 C0.90207031 74.04675781 0.90207031 74.04675781 0.9296875 75.2421875 C0.95289063 75.82226562 0.97609375 76.40234375 1 77 C4.6555809 78.69404969 6.43932415 79.15574329 10.375 78.0625 C22.25863919 72.09450499 30.03385987 59.82631691 36.9375 49 C37.62134766 47.93910156 38.30519531 46.87820313 39.00976562 45.78515625 C40.67899621 43.19376331 42.34222317 40.59872903 44 38 C45.9375 38.8125 45.9375 38.8125 48 40 C49 43 49 43 47.48046875 46.30078125 C46.72939668 47.64550798 45.96405051 48.98232388 45.1875 50.3125 C44.78096191 51.01947021 44.37442383 51.72644043 43.95556641 52.45483398 C36.10542362 65.86237469 26.6639381 81.67264916 10.96484375 86.64453125 C4.74048056 87.77060888 -0.71317554 87.51375702 -6.26953125 84.30859375 C-10.29699079 81.26299794 -11.70457725 78.12642833 -12.375 73.30078125 C-13.06728978 56.7507286 -3.2521653 41.41845753 5.3203125 27.859375 C6.28401485 25.22303983 5.87312504 23.63624711 5 21 C3.64466636 19.3726145 3.64466636 19.3726145 1.9375 18.1875 C0.4834375 17.1046875 0.4834375 17.1046875 -1 16 C-7.09865891 24.40080168 -12.55495851 33.16961077 -18 42 C-19.65 41.34 -21.3 40.68 -23 40 C-22.42880883 36.07877913 -21.28000886 33.46464065 -19.12109375 30.15625 C-18.53279785 29.24504395 -17.94450195 28.33383789 -17.33837891 27.39501953 C-16.39744385 25.96198486 -16.39744385 25.96198486 -15.4375 24.5 C-14.16203175 22.52911721 -12.88728947 20.5577644 -11.61328125 18.5859375 C-10.99404785 17.63170898 -10.37481445 16.67748047 -9.73681641 15.69433594 C-7.48449551 12.20029413 -5.29117667 8.6729154 -3.125 5.125 C-2.50882813 4.11695313 -1.89265625 3.10890625 -1.2578125 2.0703125 C-0.84273437 1.38710938 -0.42765625 0.70390625 0 0 Z " fill="#D7AD60" transform="translate(909,604)"/>
<path d="M0 0 C2.475 0.495 2.475 0.495 5 1 C4.3898756 5.55179919 2.52792668 9.21563445 0.39453125 13.21484375 C0.03284348 13.90703506 -0.3288443 14.59922638 -0.70149231 15.31239319 C-1.85755206 17.52394054 -3.02162832 19.7311114 -4.1875 21.9375 C-15.72472655 42.2123619 -15.72472655 42.2123619 -21.625 64.375 C-21.69976563 65.24898437 -21.77453125 66.12296875 -21.8515625 67.0234375 C-21.90054687 67.67570313 -21.94953125 68.32796875 -22 69 C-15.44141511 69.62462713 -11.62975149 69.03446335 -6.3125 65.07421875 C1.42678698 58.13239208 7.21714314 49.51884307 12.77709961 40.81274414 C15.80500693 36.09749653 15.80500693 36.09749653 18 35 C19.32 35.99 20.64 36.98 22 38 C20.57676304 43.07076775 18.36302119 46.94593777 15.4375 51.25 C14.77041016 52.23516602 14.77041016 52.23516602 14.08984375 53.24023438 C7.28672056 63.10669571 -1.04750285 73.84450791 -13 77.5 C-18.83308153 78.56486275 -24.67947055 78.23432418 -29.9375 75.4375 C-34.16856076 70.43715547 -35.29527474 65.84311591 -35.0625 59.4375 C-32.84228545 40.85780984 -20.70716227 25.68499258 -9.31347656 11.62207031 C-7.29902441 9.13433423 -5.30788138 6.62804025 -3.3125 4.125 C-2.20898532 2.74947669 -1.10509978 1.37425016 0 0 Z " fill="#D7AD60" transform="translate(1348,607)"/>
<path d="M0 0 C4.62570348 2.74406139 8.43051237 7.24208437 10.203125 12.34375 C12.2215315 24.45418901 10.10109784 35.55933596 3.3125 45.75 C2.08986004 47.35455475 0.84035415 48.93906015 -0.4375 50.5 C-0.98792969 51.19867187 -1.53835938 51.89734375 -2.10546875 52.6171875 C-6.31136937 57.3894456 -11.14528139 60.21607549 -16.75 63.0625 C-17.45632568 63.42166504 -18.16265137 63.78083008 -18.89038086 64.15087891 C-24.04882841 66.6295572 -24.04882841 66.6295572 -27.4375 65.5 C-22.94065789 61.84631579 -22.94065789 61.84631579 -20.5703125 60.21484375 C-10.49889413 53.18052625 -3.66852686 42.70235096 -1.4375 30.5 C-0.86247834 21.00108453 -0.64671507 12.05079222 -6.1875 3.9375 C-9.46911375 1.84091344 -11.63636109 1.87799545 -15.4375 2.5 C-18.23799276 5.39083124 -18.42691502 7.36874619 -18.75 11.375 C-18.60703506 15.33287164 -17.68628822 18.75363534 -16.4375 22.5 C-15.179375 22.54125 -13.92125 22.5825 -12.625 22.625 C-11.91730469 22.64820313 -11.20960937 22.67140625 -10.48046875 22.6953125 C-8.12390281 22.63254462 -8.12390281 22.63254462 -5.4375 20.5 C-4.4475 20.5 -3.4575 20.5 -2.4375 20.5 C-3.83334792 23.87329915 -5.36115611 25.54232662 -8.4375 27.5 C-13.74202035 29.26817345 -19.21891456 29.4734553 -24.3125 26.9375 C-28.05490496 24.01842413 -29.13019694 22.03711064 -30.4375 17.5 C-30.99004919 12.25078266 -30.30077143 8.94300739 -27.4375 4.5 C-20.16561491 -2.3891543 -9.27537495 -4.04678521 0 0 Z " fill="#C49A6C" transform="translate(1845.4375,737.5)"/>
<path d="M0 0 C4.62570348 2.74406139 8.43051237 7.24208437 10.203125 12.34375 C12.2215315 24.45418901 10.10109784 35.55933596 3.3125 45.75 C2.08986004 47.35455475 0.84035415 48.93906015 -0.4375 50.5 C-0.98792969 51.19867187 -1.53835938 51.89734375 -2.10546875 52.6171875 C-6.31136937 57.3894456 -11.14528139 60.21607549 -16.75 63.0625 C-17.45632568 63.42166504 -18.16265137 63.78083008 -18.89038086 64.15087891 C-24.04882841 66.6295572 -24.04882841 66.6295572 -27.4375 65.5 C-22.94065789 61.84631579 -22.94065789 61.84631579 -20.5703125 60.21484375 C-10.49889413 53.18052625 -3.66852686 42.70235096 -1.4375 30.5 C-0.86247834 21.00108453 -0.64671507 12.05079222 -6.1875 3.9375 C-9.46911375 1.84091344 -11.63636109 1.87799545 -15.4375 2.5 C-18.23799276 5.39083124 -18.42691502 7.36874619 -18.75 11.375 C-18.60703506 15.33287164 -17.68628822 18.75363534 -16.4375 22.5 C-15.179375 22.54125 -13.92125 22.5825 -12.625 22.625 C-11.91730469 22.64820313 -11.20960937 22.67140625 -10.48046875 22.6953125 C-8.12390281 22.63254462 -8.12390281 22.63254462 -5.4375 20.5 C-4.4475 20.5 -3.4575 20.5 -2.4375 20.5 C-3.83334792 23.87329915 -5.36115611 25.54232662 -8.4375 27.5 C-13.74202035 29.26817345 -19.21891456 29.4734553 -24.3125 26.9375 C-28.05490496 24.01842413 -29.13019694 22.03711064 -30.4375 17.5 C-30.99004919 12.25078266 -30.30077143 8.94300739 -27.4375 4.5 C-20.16561491 -2.3891543 -9.27537495 -4.04678521 0 0 Z " fill="#C49A6C" transform="translate(1795.4375,737.5)"/>
<path d="M0 0 C0.99 1.98 1.98 3.96 3 6 C3.928125 5.195625 4.85625 4.39125 5.8125 3.5625 C10.08143113 -0.13724032 14.07191585 -0.34518903 19.5546875 -0.28125 C23.08139806 0.12437805 24.70152297 1.34238593 27 4 C28.90683581 7.86734986 29.23987173 11.00177044 29.23828125 15.2890625 C29.25439453 16.47757813 29.27050781 17.66609375 29.28710938 18.890625 C29.30408922 21.38796854 29.30922448 23.88541967 29.30273438 26.3828125 C29.33270508 28.16171875 29.33270508 28.16171875 29.36328125 29.9765625 C29.36626221 31.06018066 29.36924316 32.14379883 29.37231445 33.26025391 C29.73495496 36.23477375 29.73495496 36.23477375 32.53979492 37.81396484 C33.3516626 38.20535645 34.16353027 38.59674805 35 39 C35 39.33 35 39.66 35 40 C27.74 40 20.48 40 13 40 C13 39.34 13 38.68 13 38 C13.9590625 37.814375 13.9590625 37.814375 14.9375 37.625 C15.618125 37.41875 16.29875 37.2125 17 37 C18.86630915 33.2673817 18.22798906 28.79529215 18.25 24.6875 C18.270625 23.73681641 18.29125 22.78613281 18.3125 21.80664062 C18.40327483 14.87961064 18.40327483 14.87961064 15 9 C9.78151248 7.22097017 7.68620915 8.37536881 2 10 C2.33 18.58 2.66 27.16 3 36 C4.65 36.66 6.3 37.32 8 38 C8 38.66 8 39.32 8 40 C0.74 40 -6.52 40 -14 40 C-14 39.34 -14 38.68 -14 38 C-13.360625 37.87625 -12.72125 37.7525 -12.0625 37.625 C-11.381875 37.41875 -10.70125 37.2125 -10 37 C-8.61691219 34.23382437 -8.88789804 31.98982 -8.90234375 28.8984375 C-8.90556641 27.68671875 -8.90878906 26.475 -8.91210938 25.2265625 C-8.92048828 23.95554687 -8.92886719 22.68453125 -8.9375 21.375 C-8.94201172 20.09625 -8.94652344 18.8175 -8.95117188 17.5 C-8.96298797 14.33328708 -8.97946185 11.16666644 -9 8 C-11.64 8.33 -14.28 8.66 -17 9 C-16 6 -16 6 -13.1640625 4.39453125 C-11.99617188 3.87246094 -10.82828125 3.35039063 -9.625 2.8125 C-8.46226563 2.28269531 -7.29953125 1.75289062 -6.1015625 1.20703125 C-3 0 -3 0 0 0 Z " fill="#C49A6C" transform="translate(1573,736)"/>
<path d="M0 0 C0.66 0 1.32 0 2 0 C1.85704109 1.39613065 1.71048442 2.79189308 1.5625 4.1875 C1.48128906 4.96480469 1.40007812 5.74210938 1.31640625 6.54296875 C0.99402379 9.04640786 0.49501895 11.52490524 0 14 C-7.59 14.33 -15.18 14.66 -23 15 C-23.33 17.31 -23.66 19.62 -24 22 C-22.98679687 22.17015625 -21.97359375 22.3403125 -20.9296875 22.515625 C-19.57799199 22.75968113 -18.22643662 23.00451432 -16.875 23.25 C-15.87726563 23.41435547 -15.87726563 23.41435547 -14.859375 23.58203125 C-7.81410655 24.89438518 -3.17780881 28.12012093 1 34 C3.47672726 38.95345452 2.57690041 46.20142812 0.9375 51.3125 C-6.09168785 61.06266379 -16.52103236 67.55805689 -28 71 C-26.48468753 66.75712508 -23.71726317 65.33240042 -20 63 C-14.60722787 59.58019328 -12.02948995 54.93875337 -10 49 C-9.1663547 43.75378392 -9.21651933 38.84496007 -11.5625 34 C-15.3437558 29.34614671 -19.15461694 28.32220974 -24.9375 27.3125 C-25.948125 27.209375 -26.95875 27.10625 -28 27 C-29.31709265 23.04872205 -28.42504728 19.90615559 -27.625 15.9375 C-27.48578125 15.20466797 -27.3465625 14.47183594 -27.203125 13.71679688 C-26.14773261 8.29546523 -26.14773261 8.29546523 -25 6 C-22.59155273 5.40576172 -22.59155273 5.40576172 -19.43359375 4.9296875 C-18.30888672 4.75566406 -17.18417969 4.58164062 -16.02539062 4.40234375 C-14.24938477 4.14130859 -14.24938477 4.14130859 -12.4375 3.875 C-10.65569336 3.60236328 -10.65569336 3.60236328 -8.83789062 3.32421875 C-5.89304481 2.87480453 -2.94718115 2.4337897 0 2 C0 1.34 0 0.68 0 0 Z " fill="#C49A6C" transform="translate(1896,733)"/>
<path d="M0 0 C2.73541718 1.82361146 4.1888716 2.79795829 5.625 5.75 C5.85992829 8.46994749 5.76202151 11.00956977 5.625 13.75 C-2.73248222 14.59327749 -10.97697746 14.87190678 -19.375 14.75 C-18.38811308 23.35087559 -18.38811308 23.35087559 -14.375 30.75 C-9.58657218 33.97940481 -5.96330573 34.20066982 -0.375 33.75 C1.87632517 32.83431094 1.87632517 32.83431094 3.625 31.75 C4.615 31.75 5.605 31.75 6.625 31.75 C5.42445221 35.48503757 3.15903917 37.13713174 -0.26171875 38.921875 C-6.88515991 41.51738244 -13.45012109 41.18101195 -20.109375 38.8984375 C-25.55518829 36.13797352 -28.48890431 31.416783 -30.375 25.75 C-31.28625726 18.66126623 -30.65914723 12.59080942 -26.375 6.75 C-19.23849032 -0.54870308 -9.7567192 -3.6135997 0 0 Z M-16.1875 3.875 C-18.77151352 6.83591892 -18.77151352 6.83591892 -19.375 11.75 C-14.755 11.75 -10.135 11.75 -5.375 11.75 C-6.035 8.78 -6.695 5.81 -7.375 2.75 C-11.43364536 1.52296768 -12.71444266 1.25091223 -16.1875 3.875 Z " fill="#C49A6C" transform="translate(1689.375,737.25)"/>
<path d="M0 0 C2 3 2 3 1.75 5.5625 C1 8 1 8 -1 10 C-6.17431193 10.55045872 -6.17431193 10.55045872 -8.6875 8.875 C-10.43207769 6.38274616 -11.71539556 3.75272381 -13 1 C-15.33071879 0.58129447 -15.33071879 0.58129447 -18 1 C-23.08608114 6.22736117 -23.35361836 10.91374798 -23.27734375 17.9140625 C-22.88407387 22.28988224 -21.76733142 25.57091542 -19 29 C-14.5956779 32.20314334 -10.31006352 32.62171569 -5 32 C-2.59128114 31.46725878 -0.34608491 30.7820283 2 30 C0.79945221 33.73503757 -1.46596083 35.38713174 -4.88671875 37.171875 C-11.51015991 39.76738244 -18.07512109 39.43101195 -24.734375 37.1484375 C-30.18018829 34.38797352 -33.11390431 29.666783 -35 24 C-35.78082773 17.92588658 -35.56956661 12.16593929 -32.46484375 6.78515625 C-24.41778534 -3.0215256 -11.03430998 -6.08012999 0 0 Z " fill="#C49A6C" transform="translate(1649,739)"/>
<path d="M0 0 C0.61875 0.33 1.2375 0.66 1.875 1 C2.125 8.625 2.125 8.625 -0.125 12 C-3.125 7.25 -3.125 7.25 -3.125 5 C-6.77579826 3.38935371 -10.1757432 2.55105909 -14.125 2 C-14.24362226 4.90624546 -14.25743082 6.37806558 -13.125 9 C-10.04689927 11.73735157 -6.61730615 13.83086574 -3.125 16 C0.27014606 18.47562734 2.31419465 20.10501728 3.875 24 C4.11637178 28.49756077 3.42833627 32.10321363 1.0625 35.9375 C-3.15863208 39.91742453 -6.34994704 40.27447056 -12.125 40.25 C-13.341875 40.25515625 -14.55875 40.2603125 -15.8125 40.265625 C-19.125 40 -19.125 40 -23.125 38 C-23.125 34.04 -23.125 30.08 -23.125 26 C-22.465 26 -21.805 26 -21.125 26 C-20.046875 27.64453125 -20.046875 27.64453125 -18.875 29.8125 C-16.53384074 33.70752603 -14.57709225 35.57911949 -10.125 37 C-7.82612992 36.80469849 -7.82612992 36.80469849 -6.125 36 C-5.62303706 32.71073505 -5.62303706 32.71073505 -6.125 29 C-8.72261516 26.26917381 -11.30553497 24.52709309 -14.45703125 22.5 C-15.25496094 21.984375 -16.05289062 21.46875 -16.875 20.9375 C-18.01195312 20.23947266 -18.01195312 20.23947266 -19.171875 19.52734375 C-21.37891494 17.80143851 -22.20189303 16.63183688 -23.125 14 C-23.45378184 10.17106143 -23.25158893 6.43353382 -20.8203125 3.33984375 C-14.82252844 -1.77766852 -7.36037947 -2.35532143 0 0 Z " fill="#C49A6C" transform="translate(1517.125,737)"/>
<path d="M0 0 C8.58 0 17.16 0 26 0 C26 0.66 26 1.32 26 2 C23.69 2.66 21.38 3.32 19 4 C19 14.56 19 25.12 19 36 C22.465 36.495 22.465 36.495 26 37 C26 37.66 26 38.32 26 39 C17.42 39 8.84 39 0 39 C0 38.34 0 37.68 0 37 C2.97 36.505 2.97 36.505 6 36 C7.53931607 30.7847511 7.18430775 25.4542175 7.1875 20.0625 C7.19974609 18.97775391 7.21199219 17.89300781 7.22460938 16.77539062 C7.22654297 15.72673828 7.22847656 14.67808594 7.23046875 13.59765625 C7.23663208 12.16691772 7.23663208 12.16691772 7.24291992 10.70727539 C6.97808699 7.75578561 6.37103602 5.62473768 5 3 C2.45224694 2.10613836 2.45224694 2.10613836 0 2 C0 1.34 0 0.68 0 0 Z " fill="#C49A6C" transform="translate(1731,737)"/>
<path d="M0 0 C0.33 11.88 0.66 23.76 1 36 C2.65 36.66 4.3 37.32 6 38 C6 38.66 6 39.32 6 40 C-1.26 40 -8.52 40 -16 40 C-16 39.34 -16 38.68 -16 38 C-15.360625 37.87625 -14.72125 37.7525 -14.0625 37.625 C-13.381875 37.41875 -12.70125 37.2125 -12 37 C-10.70638006 34.41276011 -10.87051051 32.51886997 -10.8671875 29.625 C-10.86589844 28.55765625 -10.86460938 27.4903125 -10.86328125 26.390625 C-10.86714844 25.27171875 -10.87101562 24.1528125 -10.875 23 C-10.87113281 21.88109375 -10.86726563 20.7621875 -10.86328125 19.609375 C-10.86521484 18.00835938 -10.86521484 18.00835938 -10.8671875 16.375 C-10.86887939 14.90160156 -10.86887939 14.90160156 -10.87060547 13.3984375 C-10.84104765 10.98592106 -10.84104765 10.98592106 -12 9 C-13.98 9 -15.96 9 -18 9 C-18 8.34 -18 7.68 -18 7 C-15.56568361 5.82625827 -13.12795818 4.66084237 -10.6875 3.5 C-9.99720703 3.16613281 -9.30691406 2.83226562 -8.59570312 2.48828125 C-3.33984375 0 -3.33984375 0 0 0 Z " fill="#C49A6C" transform="translate(1545,736)"/>
<path d="M0 0 C2.54675502 2.70592721 3.01630512 4.23365923 2.9375 7.9375 C1.51078083 12.59811595 -0.53736327 15.84528679 -4.375 18.875 C-7.5066385 20.21713079 -9.62729527 20.44969396 -13 20 C-15.50371497 16.24442754 -15.13599284 14.59523338 -14.546875 10.2890625 C-12.68559802 2.49828887 -7.76984595 -0.97123074 0 0 Z " fill="#D7AD60" transform="translate(1372,578)"/>
<path d="M0 0 C3.375 0.9375 3.375 0.9375 5.375 3.9375 C5.1875 7.5 5.1875 7.5 4.375 10.9375 C1.375 12.9375 1.375 12.9375 -2.1875 12.6875 C-5.625 11.9375 -5.625 11.9375 -7.625 9.9375 C-8.0917512 6.35907414 -8.02728636 4.56506672 -6.0625 1.5 C-3.625 -0.0625 -3.625 -0.0625 0 0 Z " fill="#C49A6C" transform="translate(1540.625,714.0625)"/>
</svg>
