<svg id="Layer_1" data-name="Layer 1" xmlns="http://www.w3.org/2000/svg" viewBox="0 0 492.75 307.63"><defs><style>.cls-1{fill:none;stroke:#d6ad60;stroke-linecap:round;stroke-linejoin:round;stroke-width:7px;}.cls-2,.cls-3{fill:#d6ad60;}.cls-3{font-size:62px;font-family:Parisienne-Regular, Parisienne;}.cls-4{opacity:0.5;}</style></defs><polyline class="cls-1" points="3.5 143.1 214.07 3.5 214.07 3.5 424.64 143.1"/><polyline class="cls-1" points="275.95 3.5 275.95 3.5 489.25 143.1"/><line class="cls-1" x1="246.03" y1="23.31" x2="275.95" y2="3.5"/><polyline class="cls-1" points="91.47 83.39 91.47 37.79 121.48 37.79 121.48 63.5"/><path class="cls-2" d="M16.75,298.05l.78-38.46,1.87.16-.78,38.3q-.07,4.05,1.37,5.81c1,1.17,2.72,1.75,5.26,1.75.11,0,.16.16.16.47s-.05.47-.16.47c-1.14,0-2.32,0-3.54-.08s-2.57-.08-4-.08-2.63,0-3.82.08-2.32.08-3.36.08c-.1,0-.15-.16-.15-.47s.05-.47.15-.47q3.28,0,4.72-1.75T16.75,298.05Zm54.06,7.56c.15,0,.23.16.23.47s-.08.47-.23.47c-1.25,0-2.67,0-4.25-.08s-3.24-.08-5-.08-3.21,0-4.64.08-2.72.08-3.86.08c-.1,0-.16-.16-.16-.47s.06-.47.16-.47c2.6,0,4.26-.33,5-1s1-2.13.94-4.37l-1.48-37.67L60.12,259,39.84,306c-.05.21-.26.31-.62.31s-.6-.1-.71-.31L18.94,264.27q-2.65-5.53-7.88-5.54c-.11,0-.16-.15-.16-.46s0-.47.16-.47c.83,0,1.73,0,2.69.08s1.75.08,2.38.08c.83,0,1.6,0,2.3-.08s1.23-.08,1.6-.08a2.15,2.15,0,0,1,1.71.7,17.22,17.22,0,0,1,1.88,3.36L41.4,299.29,39,303.35l19-43.6a3.46,3.46,0,0,1,1-1.44,2.05,2.05,0,0,1,1.32-.51c.32,0,.73,0,1.25.08s1.15.08,1.87.08c1.41,0,2.55,0,3.44-.08s1.82-.08,2.8-.08c.11,0,.16.16.16.47s-.05.46-.16.46a10.87,10.87,0,0,0-5.53,1.1q-1.8,1.1-1.64,4.29l1.56,36.11a10.69,10.69,0,0,0,.54,3.43,2.65,2.65,0,0,0,1.92,1.56A17.33,17.33,0,0,0,70.81,305.61Z" transform="translate(-3.97 -87.11)"/><path class="cls-2" d="M110.51,307.48a32.67,32.67,0,0,1-11.86-2,25.34,25.34,0,0,1-8.81-5.58,24.25,24.25,0,0,1-5.46-8.15,25.82,25.82,0,0,1-1.87-9.83,23.49,23.49,0,0,1,2.22-10.41,23.22,23.22,0,0,1,6.2-7.84,27.73,27.73,0,0,1,9.32-5,39.54,39.54,0,0,1,19.35-.94,19.54,19.54,0,0,1,6,2.26,1.62,1.62,0,0,1,.66.55,4,4,0,0,1,.2,1.17l.93,9.2c0,.16-.13.26-.39.31a.43.43,0,0,1-.54-.23,22.53,22.53,0,0,0-2.11-5.15,14.45,14.45,0,0,0-7.91-6.67,18.24,18.24,0,0,0-6.21-1,22.46,22.46,0,0,0-11,2.73,19.93,19.93,0,0,0-7.84,7.8,23.81,23.81,0,0,0-2.89,12A30.22,30.22,0,0,0,90,290.05a26,26,0,0,0,4.45,8.27,20.89,20.89,0,0,0,7.49,5.85,24.7,24.7,0,0,0,10.68,2.14,15.48,15.48,0,0,0,5.89-.93,6,6,0,0,0,3.2-3,13.32,13.32,0,0,0,1-5.54,21.46,21.46,0,0,0-.51-5.5,3.23,3.23,0,0,0-2.34-2.3,23.69,23.69,0,0,0-6-.55c-.31,0-.46-.2-.46-.62s.13-.62.39-.62c3.32.2,6.34.32,9,.35s5.54,0,8.51-.2c.26,0,.39.18.39.55s-.13.54-.39.54a4.47,4.47,0,0,0-2.66.51,3.49,3.49,0,0,0-1.09,2.54,58.15,58.15,0,0,0-.23,6.08,35.19,35.19,0,0,0,.15,3.82c.11.83.2,1.44.28,1.83a6.05,6.05,0,0,1,.11,1.21,1,1,0,0,1-.15.63,1.85,1.85,0,0,1-.7.31c-2.66.57-5.43,1.07-8.31,1.48A56.67,56.67,0,0,1,110.51,307.48Z" transform="translate(-3.97 -87.11)"/><path class="cls-2" d="M179.69,299.92a7.91,7.91,0,0,0,.63,3.55,3.69,3.69,0,0,0,2.65,1.67,28.12,28.12,0,0,0,6,.47c.15,0,.23.16.23.47s-.08.47-.23.47c-1.67,0-3.48,0-5.43-.08s-4.07-.08-6.35-.08c-1.72,0-3.37,0-5,.08s-3,.08-4.25.08c-.1,0-.15-.16-.15-.47s0-.47.15-.47a17.26,17.26,0,0,0,4.29-.39,2.64,2.64,0,0,0,1.88-1.56,9.74,9.74,0,0,0,.46-3.43V264.12a9.48,9.48,0,0,0-.46-3.4,2.79,2.79,0,0,0-1.88-1.56,16,16,0,0,0-4.29-.43c-.1,0-.15-.15-.15-.46s0-.47.15-.47c1.25,0,2.66,0,4.22.12s3.19.11,4.91.11c1.35,0,3-.07,4.95-.23s3.91-.24,5.89-.24a22.83,22.83,0,0,1,8,1.33,11.51,11.51,0,0,1,7.84,11.47,15.34,15.34,0,0,1-1.53,7.1,14,14,0,0,1-4.05,4.87,18.2,18.2,0,0,1-5.58,2.85,20.69,20.69,0,0,1-6.08.93c-.63,0-1.26,0-1.91-.07a10.37,10.37,0,0,1-1.84-.32c-.21-.05-.27-.24-.19-.58s.19-.48.35-.43a13.5,13.5,0,0,0,1.44.23,11.35,11.35,0,0,0,1.37.08,13.3,13.3,0,0,0,6-1.4,10.83,10.83,0,0,0,4.53-4.33A14.25,14.25,0,0,0,198,272a15.21,15.21,0,0,0-1.56-7.22,11.06,11.06,0,0,0-4.29-4.49,12.15,12.15,0,0,0-6.08-1.56,21.49,21.49,0,0,0-3.94.28,2.5,2.5,0,0,0-1.91,1.44,9.79,9.79,0,0,0-.55,3.82Z" transform="translate(-3.97 -87.11)"/><path class="cls-2" d="M264.48,305.61c.21,0,.31.16.31.47s-.1.47-.31.47c-1.51,0-3-.05-4.6-.16s-3.07-.15-4.52-.15c-1.62,0-3,.05-4.22.15s-2.52.16-4,.16c-.2,0-.31-.16-.31-.47s.11-.47.31-.47q4.14,0,5.15-1.21t-.54-4.56l-17.32-36.58,2-2.42-15.13,35.8c-1.3,3.18-1.38,5.46-.24,6.87s3.41,2.1,6.79,2.1c.26,0,.39.16.39.47s-.13.47-.39.47c-1.56,0-3-.05-4.29-.16s-2.94-.15-4.91-.15-3.37.05-4.49.15-2.48.16-4.09.16c-.21,0-.32-.16-.32-.47s.11-.47.32-.47a7.72,7.72,0,0,0,3.66-.82,8.22,8.22,0,0,0,2.93-2.88,37.87,37.87,0,0,0,3-6l16.46-38.84a.59.59,0,0,1,.54-.24c.26,0,.42.08.47.24l18.41,38.76a50.27,50.27,0,0,0,3.2,6,9.21,9.21,0,0,0,2.77,3A5.69,5.69,0,0,0,264.48,305.61ZM225.09,285.1l.78-1.56h20.67l.55,1.56Z" transform="translate(-3.97 -87.11)"/><path class="cls-2" d="M301.92,256.94a47.6,47.6,0,0,1,5.81.31,28.3,28.3,0,0,1,4.72,1,26.16,26.16,0,0,1,4.45,1.83,2,2,0,0,1,.66.51,3.9,3.9,0,0,1,.19,1.21l.94,9.28q0,.15-.39.27a.41.41,0,0,1-.55-.19q-1.78-6.48-5.73-9.75t-10.33-3.28A22.58,22.58,0,0,0,290.1,261a19.89,19.89,0,0,0-7.72,8.19,26.65,26.65,0,0,0-2.77,12.48,26.19,26.19,0,0,0,1.76,9.63,24.92,24.92,0,0,0,4.87,7.88,22.49,22.49,0,0,0,7.14,5.26,20,20,0,0,0,8.54,1.87q6.48,0,10.45-3.15t6-9.48c.05-.16.22-.21.51-.16s.43.13.43.24l-.78,8.58a3.14,3.14,0,0,1-.24,1.17,2.2,2.2,0,0,1-.62.54,31.16,31.16,0,0,1-7.65,2.77,39.81,39.81,0,0,1-8.11.74,31.85,31.85,0,0,1-14.62-3.23,24.3,24.3,0,0,1-13.61-22.51,24.11,24.11,0,0,1,2.1-10.18,22.92,22.92,0,0,1,5.93-7.84,27.74,27.74,0,0,1,9-5.07A34.08,34.08,0,0,1,301.92,256.94Z" transform="translate(-3.97 -87.11)"/><path class="cls-2" d="M345,300.23a9.74,9.74,0,0,0,.46,3.43,2.64,2.64,0,0,0,1.91,1.56,17.48,17.48,0,0,0,4.26.39c.15,0,.23.16.23.47s-.08.47-.23.47c-1.25,0-2.65,0-4.18-.08s-3.23-.08-5.11-.08-3.43,0-5,.08-3,.08-4.21.08c-.16,0-.24-.16-.24-.47s.08-.47.24-.47a17.93,17.93,0,0,0,4.29-.39,2.65,2.65,0,0,0,1.95-1.56,9.7,9.7,0,0,0,.47-3.43V264.12a9.44,9.44,0,0,0-.47-3.4,2.79,2.79,0,0,0-1.95-1.56,16.62,16.62,0,0,0-4.29-.43c-.16,0-.24-.15-.24-.46s.08-.47.24-.47c1.25,0,2.65,0,4.21.12s3.22.11,5,.11,3.59,0,5.15-.11,2.94-.12,4.14-.12c.15,0,.23.16.23.47s-.08.46-.23.46a14.74,14.74,0,0,0-4.26.47,2.85,2.85,0,0,0-1.91,1.64,9.78,9.78,0,0,0-.46,3.43Z" transform="translate(-3.97 -87.11)"/><path class="cls-2" d="M364.71,306.55c-.11,0-.16-.16-.16-.47s.05-.47.16-.47a17.91,17.91,0,0,0,4.33-.39,2.76,2.76,0,0,0,1.95-1.56,9.16,9.16,0,0,0,.5-3.43V264.12a8.92,8.92,0,0,0-.5-3.4,2.91,2.91,0,0,0-1.91-1.56,16.09,16.09,0,0,0-4.29-.43c-.11,0-.16-.15-.16-.46s.05-.47.16-.47h31.35a.62.62,0,0,1,.7.7l.16,9.59c0,.16-.14.25-.43.28s-.43,0-.43-.2a9.45,9.45,0,0,0-2.53-6.47,8.16,8.16,0,0,0-6-2.26h-4.76q-3.9,0-5.15.93c-.83.63-1.24,1.9-1.24,3.83v35.72a7.6,7.6,0,0,0,.66,3.55,3.87,3.87,0,0,0,2.73,1.67,29.23,29.23,0,0,0,6.12.47c.16,0,.24.16.24.47s-.08.47-.24.47c-1.71,0-3.55,0-5.5-.08s-4.12-.08-6.51-.08c-1.72,0-3.38,0-5,.08S366,306.55,364.71,306.55Zm27.45-17.24q0-3.44-1.83-4.91t-6.12-1.48H374.15v-1.64h10.29q4.14,0,5.89-1.33a4.84,4.84,0,0,0,1.76-4.13c0-.11.15-.16.46-.16s.47,0,.47.16c0,1.56,0,2.77,0,3.62s0,1.76,0,2.69c0,1.2,0,2.37.08,3.51s.08,2.37.08,3.67c0,.11-.16.16-.47.16S392.16,289.42,392.16,289.31Z" transform="translate(-3.97 -87.11)"/><path class="cls-2" d="M422.74,300.23a9.47,9.47,0,0,0,.47,3.43,2.64,2.64,0,0,0,1.91,1.56,17.39,17.39,0,0,0,4.25.39c.15,0,.23.16.23.47s-.08.47-.23.47c-1.25,0-2.64,0-4.17-.08s-3.24-.08-5.11-.08-3.43,0-5,.08-3,.08-4.21.08c-.15,0-.23-.16-.23-.47s.08-.47.23-.47a17.93,17.93,0,0,0,4.29-.39,2.65,2.65,0,0,0,1.95-1.56,9.7,9.7,0,0,0,.47-3.43V264.12a9.44,9.44,0,0,0-.47-3.4,2.79,2.79,0,0,0-1.95-1.56,16.62,16.62,0,0,0-4.29-.43c-.15,0-.23-.15-.23-.46s.08-.47.23-.47c1.25,0,2.66,0,4.21.12s3.23.11,5,.11,3.58,0,5.14-.11,2.94-.12,4.14-.12c.15,0,.23.16.23.47s-.08.46-.23.46a14.66,14.66,0,0,0-4.25.47,2.85,2.85,0,0,0-1.91,1.64,9.51,9.51,0,0,0-.47,3.43Z" transform="translate(-3.97 -87.11)"/><path class="cls-2" d="M471.25,256.94a47.6,47.6,0,0,1,5.81.31,28.3,28.3,0,0,1,4.72,1,26.16,26.16,0,0,1,4.45,1.83,2,2,0,0,1,.66.51,3.78,3.78,0,0,1,.2,1.21l.93,9.28q0,.15-.39.27c-.26.08-.44,0-.54-.19q-1.8-6.48-5.74-9.75T471,258.11A22.52,22.52,0,0,0,459.44,261a19.85,19.85,0,0,0-7.73,8.19A26.65,26.65,0,0,0,449,281.67a26.19,26.19,0,0,0,1.75,9.63,24.94,24.94,0,0,0,4.88,7.88,22.34,22.34,0,0,0,7.13,5.26,20,20,0,0,0,8.54,1.87q6.48,0,10.46-3.15t6-9.48c.05-.16.22-.21.51-.16s.43.13.43.24l-.78,8.58a3.14,3.14,0,0,1-.24,1.17,2.2,2.2,0,0,1-.62.54,31.1,31.1,0,0,1-7.64,2.77,40,40,0,0,1-8.12.74,31.88,31.88,0,0,1-14.62-3.23A24.3,24.3,0,0,1,443,281.82a24.11,24.11,0,0,1,2.1-10.18,22.92,22.92,0,0,1,5.93-7.84,27.74,27.74,0,0,1,9-5.07A34.08,34.08,0,0,1,471.25,256.94Z" transform="translate(-3.97 -87.11)"/><text class="cls-3" transform="translate(166.72 279.93)">Estates</text></svg>